<?xml version="1.0" encoding="utf-8"?>
<!-- Generator: Adobe Illustrator 16.0.0, SVG Export Plug-In . SVG Version: 6.00 Build 0)  -->
<!DOCTYPE svg PUBLIC "-//W3C//DTD SVG 1.1//EN" "http://www.w3.org/Graphics/SVG/1.1/DTD/svg11.dtd">
<svg version="1.1" id="tm_1_" xmlns="http://www.w3.org/2000/svg" xmlns:xlink="http://www.w3.org/1999/xlink" x="0px" y="0px"
	 width="222.252px" height="222.252px" viewBox="0 0 222.252 222.252" enable-background="new 0 0 222.252 222.252"
	 xml:space="preserve">
<g clip-path="url(#mask)">
<g id="eiffel">
	<g>
		<path fill="#8DC63F" d="M158.54,200.631c-0.236,0-0.473-0.096-0.643-0.286c-0.127-0.14-12.773-14.398-24.207-43.976
			c-6.705-17.345-11.699-36.502-14.846-56.945c-3.89-25.268-4.949-52.583-3.154-81.197h-9.412
			c1.796,28.614,0.736,55.93-3.154,81.197c-3.146,20.443-8.141,39.603-14.846,56.945c-11.433,29.575-24.08,43.836-24.206,43.976
			c-0.319,0.354-0.866,0.385-1.221,0.065c-0.355-0.32-0.384-0.865-0.065-1.222c0.125-0.139,12.603-14.229,23.92-43.547
			c6.648-17.225,11.602-36.254,14.722-56.562c3.901-25.393,4.934-52.867,3.066-81.662l-0.06-0.92h13.099l-0.061,0.92
			c-1.869,28.825-0.832,56.327,3.078,81.742c3.129,20.32,8.09,39.357,14.75,56.586c11.32,29.283,23.756,43.305,23.881,43.443
			c0.317,0.354,0.289,0.899-0.065,1.221C158.953,200.56,158.746,200.631,158.54,200.631z"/>
	</g>
	<g>
		<rect x="109.954" y="9.149" fill="#8DC63F" width="1.729" height="115.176"/>
	</g>
	<g>
		<path fill="#8DC63F" d="M120.054,26.439H101.9V19.09h18.154V26.439z M103.629,24.71h14.696v-3.89h-14.696V24.71z"/>
	</g>
	<g>
		<rect x="106.392" y="28.144" fill="#8DC63F" width="9.618" height="1.729"/>
	</g>
	<g>
		<path fill="#8DC63F" stroke="#231F20" stroke-width="4" stroke-linecap="round" stroke-miterlimit="10" d="M110.322,124.541"/>
	</g>
	<g>
		<path fill="#8DC63F" d="M108.471,33.775"/>
	</g>
	<g>
		<path fill="#8DC63F" d="M111.366,28.869l-0.331,0.278c0.047,0.056,2.101,2.485,5.575,6.179c-0.004-0.1-0.012-0.196-0.012-0.296
			c0-0.113,0.01-0.223,0.012-0.334C113.338,31.202,111.412,28.923,111.366,28.869z"/>
	</g>
	<g>
		<path fill="#8DC63F" d="M105.895,43.873c0.015,0.184,0.025,0.369,0.034,0.555c3.826-3.5,7.337-6.938,10.276-9.923
			c0.04-0.255,0.086-0.507,0.138-0.757C113.386,36.765,109.809,40.282,105.895,43.873z"/>
	</g>
	<g>
		<path fill="#8DC63F" d="M116.41,39.074c-3.903-3.638-7.418-7.145-10.25-10.066h-0.601c2.944,3.047,6.665,6.764,10.809,10.617
			C116.378,39.44,116.388,39.256,116.41,39.074z"/>
	</g>
	<g>
		<path fill="#8DC63F" d="M111.2,29.004v-0.213c-1.745,1.754-3.696,3.671-5.794,5.665c0.038,0.163,0.073,0.328,0.106,0.495
			c2.211-2.098,4.261-4.113,6.084-5.947H111.2z"/>
	</g>
	<g>
		<path fill="#8DC63F" d="M116.058,43.461c-3.998-3.688-7.628-7.279-10.584-10.311c-0.024,0.179-0.047,0.358-0.083,0.533
			c2.985,3.055,6.634,6.655,10.643,10.341C116.038,43.836,116.045,43.647,116.058,43.461z"/>
	</g>
	<g>
		<path fill="#8DC63F" d="M116.076,48.254c-3.604-3.249-6.962-6.482-9.869-9.388c0.01,0.208,0.016,0.417,0.018,0.628
			c2.906,2.895,6.242,6.098,9.816,9.309C116.048,48.619,116.062,48.436,116.076,48.254z"/>
	</g>
	<g>
		<path fill="#8DC63F" d="M116.106,28.391c-2.685,2.803-6.132,6.294-10.035,9.988c0.025,0.176,0.047,0.354,0.065,0.531
			c3.884-3.668,7.329-7.146,10.035-9.965C116.147,28.762,116.125,28.577,116.106,28.391z"/>
	</g>
	<g>
		<path fill="#8DC63F" d="M105.874,49.139c3.816-3.414,7.374-6.83,10.438-9.89c-0.015-0.191-0.024-0.385-0.029-0.579
			c-3.038,3.041-6.581,6.454-10.39,9.873C105.889,48.743,105.884,48.941,105.874,49.139z"/>
	</g>
	<g>
		<path fill="#8DC63F" d="M116.17,43.344c-3.133,3.091-6.716,6.479-10.518,9.822c0.023,0.173,0.043,0.347,0.062,0.521
			c3.77-3.307,7.329-6.661,10.456-9.736c-0.002-0.102-0.007-0.202-0.007-0.305C116.164,43.545,116.168,43.445,116.17,43.344z"/>
	</g>
	<g>
		<path fill="#8DC63F" d="M116.104,53.126c-3.611-3.253-6.976-6.492-9.888-9.402c-0.006,0.194-0.016,0.389-0.029,0.581
			c2.954,2.943,6.354,6.207,9.999,9.476C116.153,53.564,116.126,53.346,116.104,53.126z"/>
	</g>
	<g>
		<path fill="#8DC63F" d="M116.59,57.636c-3.923-3.515-7.569-7.027-10.68-10.144c-0.034,0.167-0.073,0.332-0.113,0.496
			c3.158,3.159,6.853,6.711,10.822,10.253C116.606,58.04,116.597,57.839,116.59,57.636z"/>
	</g>
	<g>
		<path fill="#8DC63F" d="M105.361,58.963c3.953-3.382,7.718-6.873,11.055-10.113c-0.046-0.157-0.091-0.315-0.132-0.475
			c-3.305,3.214-7.035,6.682-10.958,10.049C105.34,58.604,105.353,58.783,105.361,58.963z"/>
	</g>
	<g>
		<path fill="#8DC63F" d="M105.377,63.354c0,0.112-0.004,0.223-0.007,0.334c3.886-3.258,7.617-6.66,10.98-9.877
			c-0.035-0.167-0.068-0.334-0.099-0.503c-3.329,3.19-7.026,6.57-10.881,9.814C105.374,63.199,105.377,63.276,105.377,63.354z"/>
	</g>
	<g>
		<path fill="#8DC63F" d="M116.595,57.848c-3.269,3.322-7.253,7.214-11.597,11.13c0.001,0.069,0.004,0.14,0.004,0.21
			c0,0.125-0.005,0.25-0.008,0.375c4.345-3.903,8.34-7.795,11.637-11.135C116.616,58.235,116.603,58.042,116.595,57.848z"/>
	</g>
	<g>
		<path fill="#8DC63F" d="M116.708,62.773c-4.027-3.52-7.818-7.104-11.112-10.355c-0.028,0.173-0.061,0.344-0.095,0.514
			c3.312,3.264,7.115,6.852,11.15,10.367C116.667,63.123,116.685,62.947,116.708,62.773z"/>
	</g>
	<g>
		<path fill="#8DC63F" d="M116.603,68.49c-3.988-3.49-7.744-7.041-11.009-10.264c-0.017,0.184-0.036,0.367-0.06,0.549
			c3.304,3.253,7.092,6.826,11.109,10.328C116.626,68.9,116.612,68.695,116.603,68.49z"/>
	</g>
	<g>
		<path fill="#8DC63F" d="M117.411,74.857c-4.252-3.588-8.307-7.334-11.881-10.802c-0.048,0.153-0.1,0.304-0.152,0.454
			c3.633,3.518,7.753,7.316,12.066,10.941C117.431,75.254,117.417,75.057,117.411,74.857z"/>
	</g>
	<g>
		<path fill="#8DC63F" d="M117.899,80.448c-4.426-3.78-8.621-7.702-12.247-11.261c-0.014,0.186-0.032,0.369-0.053,0.553
			c3.648,3.572,7.852,7.492,12.283,11.264C117.886,80.817,117.892,80.633,117.899,80.448z"/>
	</g>
	<g>
		<path fill="#8DC63F" d="M116.567,63.417c-3.307,3.391-7.458,7.485-12.026,11.632c0.026,0.172,0.048,0.346,0.068,0.521
			c4.58-4.145,8.746-8.246,12.082-11.66C116.646,63.748,116.606,63.583,116.567,63.417z"/>
	</g>
	<g>
		<path fill="#8DC63F" d="M104.541,79.973c0,0.162-0.005,0.321-0.01,0.48c4.705-3.917,9.031-7.844,12.558-11.176
			c-0.01-0.192-0.015-0.385-0.018-0.579c-3.5,3.315-7.82,7.249-12.531,11.185C104.54,79.914,104.541,79.943,104.541,79.973z"/>
	</g>
	<g>
		<path fill="#8DC63F" d="M103.401,86.244c-0.063,0.242-0.134,0.48-0.209,0.715c5.31-4.195,10.237-8.503,14.218-12.145
			c-0.007-0.174-0.013-0.35-0.013-0.525c0-0.018,0.002-0.034,0.002-0.051C113.495,77.818,108.646,82.076,103.401,86.244z"/>
	</g>
	<g>
		<path fill="#8DC63F" d="M118.438,86.959c0-0.113,0.006-0.225,0.008-0.336c-5.397-4.553-10.183-8.991-13.657-12.334
			c-0.029,0.17-0.062,0.338-0.098,0.506c3.522,3.383,8.337,7.837,13.753,12.391C118.442,87.109,118.438,87.035,118.438,86.959z"/>
	</g>
	<g>
		<path fill="#8DC63F" d="M103.583,91.753c5.354-3.874,10.339-7.862,14.396-11.259c-0.021-0.172-0.037-0.346-0.051-0.521
			c-4.025,3.375-8.988,7.356-14.332,11.236C103.595,91.391,103.591,91.572,103.583,91.753z"/>
	</g>
	<g>
		<path fill="#8DC63F" d="M118.757,91.533c-5.381-3.917-10.295-7.854-14.143-11.062c-0.019,0.17-0.04,0.34-0.063,0.508
			c3.891,3.24,8.839,7.193,14.242,11.113C118.778,91.906,118.767,91.721,118.757,91.533z"/>
	</g>
	<g>
		<path fill="#8DC63F" d="M120.021,96.967c-6.254-3.969-11.982-8.041-16.311-11.256c-0.034,0.154-0.071,0.307-0.109,0.457
			c4.363,3.236,10.117,7.321,16.389,11.291C119.998,97.295,120.009,97.131,120.021,96.967z"/>
	</g>
	<g>
		<path fill="#8DC63F" d="M120.033,100.881c-6.636-3.904-12.613-7.863-16.876-10.807c-0.037,0.15-0.077,0.297-0.119,0.443
			c4.306,2.969,10.322,6.946,16.984,10.857C120.022,101.209,120.026,101.045,120.033,100.881z"/>
	</g>
	<g>
		<path fill="#8DC63F" d="M102.339,96.631c6.139-3.666,11.776-7.428,16.1-10.442c-0.021-0.162-0.037-0.325-0.054-0.489
			c-4.297,3.002-9.931,6.768-16.078,10.445C102.322,96.306,102.331,96.469,102.339,96.631z"/>
	</g>
	<g>
		<path fill="#8DC63F" d="M101.56,102.136c6.397-3.678,12.408-7.599,17.179-10.872c-0.036-0.148-0.072-0.299-0.104-0.451
			c-4.719,3.24-10.675,7.133-17.024,10.795C101.597,101.785,101.58,101.961,101.56,102.136z"/>
	</g>
	<g>
		<path fill="#8DC63F" d="M121.375,107.722c-7.424-4.265-14.187-8.726-18.883-11.966c-0.041,0.146-0.082,0.293-0.127,0.438
			c4.756,3.277,11.585,7.775,19.063,12.058C121.408,108.075,121.39,107.898,121.375,107.722z"/>
	</g>
	<g>
		<path fill="#8DC63F" d="M100.36,108.251c0,0.031-0.001,0.062-0.002,0.094c7.332-4.218,14.155-8.751,19.18-12.259
			c-0.029-0.154-0.057-0.312-0.082-0.469c-4.982,3.482-11.783,8.01-19.104,12.232C100.355,107.983,100.36,108.116,100.36,108.251z"
			/>
	</g>
	<g>
		<path fill="#8DC63F" d="M122.776,113.899c-8.57-4.879-16.321-10.08-21.137-13.448c-0.007,0.17-0.019,0.338-0.032,0.504
			c4.895,3.418,12.68,8.627,21.257,13.491C122.831,114.269,122.802,114.084,122.776,113.899z"/>
	</g>
	<g>
		<path fill="#8DC63F" d="M123.308,118.56c-8.97-4.101-17.153-8.593-22.248-11.521c0.008,0.169,0.011,0.337,0.013,0.505
			c5.179,2.971,13.395,7.467,22.369,11.554C123.394,118.919,123.349,118.74,123.308,118.56z"/>
	</g>
	<g>
		<path fill="#8DC63F" d="M99.346,113.801c8.137-4.304,15.627-8.953,20.725-12.271c-0.012-0.166-0.021-0.332-0.026-0.498
			c-5.038,3.285-12.5,7.93-20.633,12.248C99.392,113.454,99.37,113.627,99.346,113.801z"/>
	</g>
	<g>
		<path fill="#8DC63F" d="M99.615,113.192c6.18,3.211,15.784,7.925,25.835,11.789c-0.034-0.166-0.065-0.332-0.096-0.502
			c-10.03-3.873-19.589-8.573-25.702-11.754C99.642,112.883,99.629,113.039,99.615,113.192z"/>
	</g>
	<g>
		<path fill="#8DC63F" d="M98.207,119.021c9.493-4.229,18.043-8.854,22.92-11.604c-0.021-0.154-0.035-0.311-0.051-0.467
			c-4.802,2.712-13.325,7.332-22.818,11.577C98.242,118.692,98.226,118.856,98.207,119.021z"/>
	</g>
	<g>
		<path fill="#8DC63F" d="M96.963,124.688c10.35-4.162,20.001-9.068,25.638-12.078c-0.033-0.146-0.062-0.293-0.093-0.441
			c-5.567,2.977-15.16,7.861-25.473,12.025C97.017,124.358,96.991,124.522,96.963,124.688z"/>
	</g>
	<g>
		<path fill="#8DC63F" d="M105.433,144.802c-3.988-2.513-7.837-5.029-11.315-7.354c-0.046,0.142-0.093,0.284-0.143,0.425
			c3.478,2.324,7.322,4.838,11.304,7.344C105.328,145.076,105.38,144.938,105.433,144.802z"/>
	</g>
	<g>
		<path fill="#8DC63F" d="M107.346,138.293c-4.038-2.178-8.175-4.558-12.187-6.955c-0.043,0.144-0.086,0.283-0.133,0.425
			c4.021,2.401,8.166,4.782,12.209,6.963C107.272,138.58,107.306,138.437,107.346,138.293z"/>
	</g>
	<g>
		<path fill="#8DC63F" d="M126.927,131.554H95.481l-2.442-1.357v-6.086h35.769v6.182L126.927,131.554z M95.593,131.121h31.203
			l1.579-1.062v-5.52H93.471v5.4L95.593,131.121z"/>
	</g>
	<g>
		<rect x="93.255" y="129.853" fill="#8DC63F" width="35.335" height="0.434"/>
	</g>
	<g>
		<rect x="98.019" y="124.541" fill="#8DC63F" width="0.432" height="5.526"/>
	</g>
	<g>
		<rect x="101.659" y="124.325" fill="#8DC63F" width="0.432" height="5.742"/>
	</g>
	<g>
		<rect x="106.081" y="124.541" fill="#8DC63F" width="0.432" height="5.526"/>
	</g>
	<g>
		<rect x="115.515" y="124.541" fill="#8DC63F" width="0.434" height="5.526"/>
	</g>
	<g>
		<rect x="119.856" y="124.541" fill="#8DC63F" width="0.432" height="5.526"/>
	</g>
	<g>
		<rect x="123.228" y="124.181" fill="#8DC63F" width="0.432" height="5.889"/>
	</g>
	<g>
		<path fill="#8DC63F" d="M114.315,139.104c4.375-2.371,8.485-4.775,12.084-6.978c-0.047-0.14-0.092-0.28-0.137-0.422
			c-3.586,2.192-7.688,4.596-12.054,6.965C114.246,138.813,114.28,138.959,114.315,139.104z"/>
	</g>
	<g>
		<path fill="#8DC63F" d="M116.381,145.101c4.486-2.47,8.657-4.947,12.239-7.168c-0.049-0.14-0.094-0.279-0.139-0.423
			c-3.57,2.216-7.733,4.691-12.213,7.158C116.308,144.812,116.347,144.955,116.381,145.101z"/>
	</g>
	<g>
		<path fill="#8DC63F" d="M130.062,180.44c4.285-2.996,8.275-5.992,11.715-8.684c-0.074-0.125-0.147-0.25-0.219-0.377
			c-3.438,2.689-7.432,5.691-11.724,8.689C129.912,180.192,129.987,180.315,130.062,180.44z"/>
	</g>
	<g>
		<path fill="#8DC63F" d="M133.132,186.97c4.484-2.556,8.626-5.099,12.137-7.343c-0.074-0.125-0.145-0.25-0.215-0.377
			c-3.494,2.233-7.617,4.769-12.082,7.313C133.026,186.697,133.08,186.833,133.132,186.97z"/>
	</g>
	<g>
		<path fill="#8DC63F" d="M136.75,193.474c4.515-2.494,8.731-5.016,12.379-7.289c-0.075-0.121-0.151-0.244-0.226-0.369
			c-3.641,2.271-7.854,4.789-12.362,7.278C136.612,193.219,136.683,193.347,136.75,193.474z"/>
	</g>
	<g>
		<path fill="#8DC63F" d="M142.067,200.666c4.334-2.683,8.306-5.322,11.645-7.625c-0.08-0.119-0.16-0.238-0.236-0.36
			c-3.336,2.299-7.304,4.938-11.632,7.616C141.92,200.418,141.995,200.542,142.067,200.666z"/>
	</g>
	<g>
		<path fill="#8DC63F" d="M80.8,171.603c-0.049,0.145-0.102,0.287-0.154,0.431c2.729,2.178,6.541,5.012,11.018,7.771
			c0.04-0.145,0.08-0.289,0.123-0.432C87.309,176.604,83.504,173.767,80.8,171.603z"/>
	</g>
	<g>
		<path fill="#8DC63F" d="M76.701,178.522c-0.054,0.142-0.109,0.277-0.167,0.414c3.325,2.49,7.584,5.402,12.375,8.027
			c0.028-0.148,0.058-0.297,0.09-0.443C84.231,183.899,79.997,180.996,76.701,178.522z"/>
	</g>
	<g>
		<path fill="#8DC63F" d="M72.802,186.222c-0.083,0.18-0.17,0.354-0.26,0.524c4.873-1.397,11.818-3.742,18.663-7.263
			c0.047-0.189,0.098-0.379,0.15-0.563C84.604,182.435,77.715,184.793,72.802,186.222z"/>
	</g>
	<g>
		<path fill="#8DC63F" d="M73.191,185.64c-0.069,0.129-0.139,0.256-0.212,0.379c3.1,2.119,7.071,4.614,11.551,6.916
			c0.039-0.144,0.077-0.285,0.119-0.425C80.204,190.222,76.265,187.742,73.191,185.64z"/>
	</g>
	<g>
		<path fill="#8DC63F" d="M68.581,192.424c-0.085,0.173-0.173,0.343-0.264,0.507c4.155-0.99,12.24-3.209,20.496-7.089
			c0.049-0.186,0.101-0.368,0.155-0.55C80.865,189.146,72.871,191.384,68.581,192.424z"/>
	</g>
	<g>
		<path fill="#8DC63F" d="M68.769,192.545c-0.062,0.136-0.124,0.269-0.188,0.399c2.897,2.255,6.754,5.033,11.196,7.681
			c0.081-0.12,0.163-0.239,0.247-0.354C75.548,197.604,71.668,194.806,68.769,192.545z"/>
	</g>
	<g>
		<path fill="#8DC63F" d="M63.966,199.554c-0.002,0.149-0.004,0.301-0.01,0.448c4.805-1.231,12.737-3.617,20.579-7.528
			c0.116-0.229,0.235-0.451,0.361-0.666C76.972,195.836,68.875,198.289,63.966,199.554z"/>
	</g>
	<g>
		<path fill="#8DC63F" d="M153.741,193.222c-12.258-3.084-22.094-8.343-22.208-8.404l-0.206,0.381
			c0.117,0.062,10.201,5.457,22.695,8.542C153.925,193.569,153.832,193.397,153.741,193.222z"/>
	</g>
	<g>
		<path fill="#8DC63F" d="M149.282,186.849c-10.848-3.097-19.149-7.521-19.256-7.576l-0.205,0.381
			c0.107,0.058,8.636,4.602,19.715,7.716C149.449,187.197,149.364,187.022,149.282,186.849z"/>
	</g>
	<g>
		<path fill="#8DC63F" d="M144.985,179.573c-10.447-3.307-18.321-7.715-18.424-7.771l-0.213,0.377
			c0.104,0.057,8.183,4.584,18.85,7.914C145.125,179.923,145.054,179.749,144.985,179.573z"/>
	</g>
	<g>
		<path fill="#8DC63F" d="M136.164,192.032c0.108,0.203,0.214,0.412,0.313,0.626c4.299,2.012,12.553,5.505,21.844,7.528
			c0.232-0.104,0.467-0.205,0.699-0.293C149.146,197.822,140.365,194.026,136.164,192.032z"/>
	</g>
	<g>
		<path fill="#8DC63F" d="M114.388,138.351c5.541,2.565,10.897,4.817,15.57,6.676c0.109-0.131,0.223-0.262,0.337-0.392
			c-4.663-1.851-10.021-4.098-15.565-6.663C114.616,138.099,114.504,138.226,114.388,138.351z"/>
	</g>
	<g>
		<path fill="#8DC63F" d="M116.446,144.729c5.623,2.912,11.066,5.487,15.82,7.627c0.119-0.131,0.242-0.26,0.366-0.39
			c-4.745-2.131-10.188-4.702-15.815-7.614C116.694,144.479,116.573,144.604,116.446,144.729z"/>
	</g>
	<g>
		<path fill="#8DC63F" d="M112.235,132.017c5.603,2.434,11.011,4.555,15.727,6.301c0.105-0.135,0.217-0.268,0.328-0.398
			c-4.707-1.738-10.115-3.857-15.721-6.289C112.458,131.758,112.349,131.888,112.235,132.017z"/>
	</g>
	<g>
		<path fill="#8DC63F" d="M94.029,138.044c5.163-1.87,10.022-3.835,14.212-5.626c-0.008-0.155-0.013-0.312-0.016-0.467
			c-4.179,1.789-9.036,3.757-14.201,5.631C94.028,137.735,94.03,137.89,94.029,138.044z"/>
	</g>
	<g>
		<path fill="#8DC63F" d="M91.865,145.631c5.424-2.437,10.509-4.946,14.882-7.217c-0.023-0.164-0.045-0.33-0.063-0.496
			c-4.363,2.267-9.444,4.779-14.87,7.222C91.833,145.303,91.85,145.465,91.865,145.631z"/>
	</g>
	<g>
		<path fill="#8DC63F" d="M89.326,152.367c5.687-2.67,11.011-5.412,15.587-7.886c-0.031-0.172-0.059-0.344-0.084-0.518
			c-4.564,2.471-9.886,5.213-15.574,7.891C89.281,152.024,89.305,152.196,89.326,152.367z"/>
	</g>
	<g>
		<path fill="#8DC63F" d="M139.181,156.89h-56.3v-5.14h56.3V156.89z M83.314,156.457h55.435v-4.274H83.314V156.457z"/>
	</g>
	<g>
		<rect x="94.811" y="151.966" fill="#8DC63F" width="0.432" height="4.786"/>
	</g>
	<g>
		<rect x="105.682" y="151.966" fill="#8DC63F" width="0.432" height="4.708"/>
	</g>
	<g>
		<rect x="116.38" y="151.966" fill="#8DC63F" width="0.432" height="4.708"/>
	</g>
	<g>
		<rect x="126.79" y="151.733" fill="#8DC63F" width="0.434" height="4.939"/>
	</g>
	<g>
		<rect x="95.537" y="130.474" fill="#8DC63F" width="30.726" height="1.729"/>
	</g>
	<g>
		<path fill="#8DC63F" d="M122.981,117.862c-3.797,2.068-7.866,4.175-12.029,6.146c-0.019,0.184-0.04,0.367-0.062,0.549
			c4.212-1.986,8.332-4.115,12.175-6.207C123.034,118.188,123.005,118.026,122.981,117.862z"/>
	</g>
	<g>
		<path fill="#8DC63F" d="M98.401,118.304c3.87,2.106,8.022,4.252,12.267,6.256c-0.023-0.183-0.044-0.365-0.063-0.55
			c-4.18-1.979-8.265-4.096-12.074-6.172C98.491,117.994,98.447,118.147,98.401,118.304z"/>
	</g>
	<g>
		<rect x="107.346" y="137.438" fill="#8DC63F" width="6.44" height="0.863"/>
	</g>
	<g>
		<rect x="106.747" y="141.065" fill="#8DC63F" width="9.263" height="0.863"/>
	</g>
	<g>
		<rect x="84.649" y="164.539" fill="#8DC63F" width="53.386" height="0.433"/>
	</g>
	<g>
		<rect x="82.767" y="167.998" fill="#8DC63F" width="56.912" height="0.433"/>
	</g>
	<g>
		<rect x="80.646" y="171.601" fill="#8DC63F" width="61.05" height="0.864"/>
	</g>
	<g>
		<rect x="84.913" y="164.756" fill="#8DC63F" width="0.432" height="7.276"/>
	</g>
	<g>
		<rect x="87.506" y="164.756" fill="#8DC63F" width="0.433" height="7.276"/>
	</g>
	<g>
		<rect x="90.964" y="164.756" fill="#8DC63F" width="0.433" height="7.276"/>
	</g>
	<g>
		<rect x="94.422" y="164.756" fill="#8DC63F" width="0.432" height="7.276"/>
	</g>
	<g>
		<rect x="97.88" y="164.756" fill="#8DC63F" width="0.432" height="7.276"/>
	</g>
	<g>
		<rect x="101.77" y="164.756" fill="#8DC63F" width="0.433" height="7.276"/>
	</g>
	<g>
		<rect x="105.228" y="164.756" fill="#8DC63F" width="0.433" height="7.276"/>
	</g>
	<g>
		<rect x="108.686" y="164.756" fill="#8DC63F" width="0.433" height="7.276"/>
	</g>
	<g>
		<rect x="112.577" y="164.756" fill="#8DC63F" width="0.432" height="7.276"/>
	</g>
	<g>
		<rect x="116.034" y="164.756" fill="#8DC63F" width="0.432" height="7.276"/>
	</g>
	<g>
		<rect x="119.492" y="164.756" fill="#8DC63F" width="0.432" height="7.276"/>
	</g>
	<g>
		<rect x="123.382" y="164.756" fill="#8DC63F" width="0.432" height="7.276"/>
	</g>
	<g>
		<rect x="126.408" y="164.756" fill="#8DC63F" width="0.433" height="7.276"/>
	</g>
	<g>
		<rect x="129.866" y="164.756" fill="#8DC63F" width="0.433" height="7.276"/>
	</g>
	<g>
		<rect x="133.324" y="164.756" fill="#8DC63F" width="0.433" height="7.276"/>
	</g>
	<g>
		<rect x="136.349" y="164.756" fill="#8DC63F" width="0.434" height="7.276"/>
	</g>
	<g>
		<path fill="#8DC63F" d="M137.84,199.858c-0.093-0.194-9.483-19.549-26.854-19.549c-17.369,0-26.435,19.353-26.524,19.547
			l-0.394-0.181c0.091-0.198,9.27-19.798,26.917-19.798c17.646,0,27.151,19.598,27.245,19.795L137.84,199.858z"/>
	</g>
	<g>
		<path fill="#8DC63F" d="M86.383,190.495l-0.335-0.273c0.11-0.134,11.131-13.406,25.003-13.406
			c13.875,0,24.431,13.276,24.536,13.41l-0.34,0.268c-0.104-0.133-10.534-13.246-24.196-13.246
			C97.382,177.246,86.492,190.362,86.383,190.495z"/>
	</g>
	<g>
		<path fill="#8DC63F" d="M92.093,179.886l-0.267-0.341c0.092-0.071,9.312-7.228,19.225-7.228c9.915,0,18.817,7.096,18.906,7.166
			l-0.271,0.336c-0.088-0.069-8.875-7.067-18.635-7.067C101.29,172.752,92.184,179.813,92.093,179.886z"/>
	</g>
	<g>
		<path fill="#8DC63F" d="M94.649,182.83l-2.689-3.59l-0.346,0.26l2.671,3.563C94.401,182.979,94.522,182.901,94.649,182.83z"/>
	</g>
	<g>
		<path fill="#8DC63F" d="M127.412,182.901l2.578-2.682l-0.312-0.299l-2.662,2.77C127.153,182.754,127.286,182.822,127.412,182.901z
			"/>
	</g>
	<g>
		<path fill="#8DC63F" d="M104.223,173.388l1.086,4.383c0.139-0.033,0.281-0.06,0.426-0.078l-1.098-4.43
			C104.502,173.312,104.364,173.353,104.223,173.388z"/>
	</g>
	<g>
		<path fill="#8DC63F" d="M117.515,173.479l-1.09,4.244c0.145,0.025,0.283,0.06,0.422,0.101l1.078-4.204
			C117.784,173.581,117.647,173.533,117.515,173.479z"/>
	</g>
	<g>
		<path fill="#8DC63F" d="M124.082,175.819l-2.218,3.729c0.135,0.057,0.264,0.12,0.39,0.189l2.242-3.771
			C124.354,175.926,124.216,175.875,124.082,175.819z"/>
	</g>
	<g>
		<path fill="#8DC63F" d="M97.726,175.879l2.259,3.922c0.127-0.067,0.258-0.131,0.393-0.184l-2.236-3.886
			C98.006,175.788,97.868,175.838,97.726,175.879z"/>
	</g>
	<g>
		<path fill="#8DC63F" d="M136.974,162.457H84.896v-5.755h52.078V162.457z M85.76,161.592h50.351v-4.024H85.76V161.592z"/>
	</g>
	<g>
		<g>
			<path fill="#8DC63F" d="M111,123.048c-0.466-0.099-0.927,0.196-1.027,0.663c-2.312,10.679-4.966,20.146-7.724,28.455h1.818
				c2.714-8.238,5.32-17.586,7.595-28.09C111.765,123.608,111.467,123.147,111,123.048z"/>
		</g>
		<g>
			<path fill="#8DC63F" d="M94.632,172.032c-7.9,17.904-14.886,26.603-15.364,27.187c-0.303,0.369-0.248,0.914,0.121,1.218
				c0.161,0.131,0.354,0.194,0.547,0.194c0.251,0,0.499-0.108,0.67-0.315c0.492-0.603,7.772-9.66,15.907-28.282L94.632,172.032
				L94.632,172.032z"/>
		</g>
	</g>
	<g>
		<g>
			<path fill="#8DC63F" d="M142.362,199.215c-0.133-0.164-5.006-6.192-11.17-18.394c-1.283-2.537-2.684-5.471-4.146-8.789h-1.888
				c1.61,3.687,3.149,6.919,4.55,9.687c3.279,6.479,6.175,11.179,8.025,13.98c3.259,4.932,3.584,4.932,3.963,4.932
				c0.479,0,0.865-0.387,0.865-0.862C142.562,199.558,142.487,199.364,142.362,199.215z"/>
		</g>
		<g>
			<path fill="#8DC63F" d="M119.414,152.166c-2.75-8.254-5.433-17.74-7.753-28.455c-0.101-0.467-0.561-0.763-1.027-0.662
				c-0.467,0.103-0.763,0.562-0.662,1.027c2.283,10.545,4.917,19.907,7.623,28.09H119.414z"/>
		</g>
	</g>
	<g>
		<path fill="#8DC63F" d="M94.693,172.032c-6.367,3.361-12.792,5.689-17.455,7.145c-0.092,0.184-0.187,0.364-0.286,0.54
			c4.883-1.502,11.838-4,18.652-7.685H94.693z"/>
	</g>
	<g>
		<path fill="#8DC63F" d="M102.718,152.166c-3.94-2.67-7.843-5.435-11.486-8.086c-0.05,0.144-0.102,0.28-0.157,0.422
			c3.456,2.515,7.143,5.127,10.873,7.664H102.718z"/>
	</g>
	<g>
		<path fill="#8DC63F" d="M119.47,152.166c4.125-2.71,7.963-5.416,11.305-7.865c-0.041-0.147-0.076-0.301-0.11-0.452
			c-3.468,2.543-7.478,5.37-11.791,8.194c0.012,0.041,0.022,0.082,0.035,0.123H119.47z"/>
	</g>
</g>
<line id="vector" fill="none" stroke="#273995" stroke-miterlimit="10" x1="166.826" y1="75.57" x2="210.026" y2="13.626"/>
</g>
<circle id="ring" fill="none" stroke="#8DC63F" stroke-width="3" stroke-miterlimit="10" cx="111.126" cy="111.126" r="109.626"/>
<clipPath id="mask">
<circle  fill="none" cx="111.126" cy="111.126" r="107.981"/>
</clipPath>
</svg>
