<svg xmlns="http://www.w3.org/2000/svg" width="27.267" height="35.421" viewBox="0 0 27.267 35.421"><g fill="none" stroke="#58595B" stroke-miterlimit="10" id="Original"><path d="M.5 34.921a6.729 6.729 0 0 1 6.73-6.729 6.73 6.73 0 0 1 6.731 6.729H.5zM8.513 19.353c-.4-.147-.83-.231-1.282-.231a3.732 3.732 0 0 0 0 7.464 3.73 3.73 0 0 0 3.729-3.656c-.834-1.385-1.679-2.508-2.447-3.577z"/><path d="M17.009 13.595a2.903 2.903 0 1 1-.001-5.805 2.903 2.903 0 0 1 .001 5.805zm9.758-2.903C26.767 5.124 22.638.5 17.01.5c-5.63 0-9.78 4.563-9.78 10.192 0 9.455 6.835 8.366 9.373 23.606 0 0 .396 1.4.851 0 2.468-15.239 9.313-14.151 9.313-23.606z"/></g></svg>