<svg xmlns="http://www.w3.org/2000/svg" width="842.244" height="373.536" viewBox="0 0 842.244 373.536"><g id="Original"><linearGradient id="SVGID_1_" gradientUnits="userSpaceOnUse" x1="421.122" y1="373.493" x2="421.122" y2=".492"><stop offset=".01" stop-color="#8dc63f"/><stop offset="1" stop-color="#8dc63f"/></linearGradient><linearGradient id="SVGID_2_" gradientUnits="userSpaceOnUse" x1="421.122" y1="373.536" x2="421.122"><stop offset=".01" stop-color="#85c885"/><stop offset=".413" stop-color="#89c763"/><stop offset=".795" stop-color="#8cc747"/><stop offset="1" stop-color="#8dc63f"/></linearGradient><path fill="url(#SVGID_1_)" stroke="url(#SVGID_2_)" stroke-width=".986" stroke-miterlimit="10" d="M625.608 292.493c16.393 0 12.021-40.5 21.857-40.5 9.835 0 10.928 39.375 15.299 39.375h6.558c6.558 0 7.649 11.25 7.649 11.25s2.187-154.125 12.021-154.125c9.836 0 20.764 225 20.764 225l5.465-63s0-16.875 13.115-16.875c13.113 0 21.857 1.125 34.971-11.25 0 0 7.65-9 17.486-9s15.299 15.75 21.857 19.125h39.1v-292H.493v292h625.115z"/><path fill="#E6E7E8" d="M841.751 294.389H802.341a1.66 1.66 0 0 1-.802-.21h-.001c-1.175-.606-2.117-1.376-2.962-2.166-.845-.793-1.583-1.624-2.284-2.458-1.4-1.671-2.648-3.365-3.909-5.003-1.257-1.636-2.521-3.22-3.87-4.639-1.351-1.4-2.793-2.664-4.333-3.443a8.422 8.422 0 0 0-2.337-.814l-.593-.082-.597-.021-.074-.004c.014 0-.083-.001.021-.002l-.049.002-.195.007-.391.015c-.284.004-.467.033-.68.052-.85.084-1.789.259-2.668.504-.891.245-1.768.574-2.629.957-1.721.77-3.368 1.78-4.912 2.947a29.849 29.849 0 0 0-2.232 1.864 25.35 25.35 0 0 0-1.975 2.007 2.465 2.465 0 0 1-.171.182l-.009.007c-1.926 1.846-3.972 3.603-6.174 5.212-2.208 1.599-4.596 3.036-7.172 4.142-2.566 1.121-5.311 1.881-8.045 2.31-2.738.427-5.451.573-8.088.605l-3.916-.003-1.931-.011-.96-.002h-.299l.098-.002h-.016l-.029.001-.121.005-.484.02-.484.017c-.145.009-.229.031-.348.043-.226.038-.429.031-.682.099a9.313 9.313 0 0 0-1.424.381 7.842 7.842 0 0 0-2.479 1.474c-1.484 1.291-2.605 3.206-3.357 5.349a23.11 23.11 0 0 0-.875 3.354c-.207 1.125-.354 2.392-.383 3.408l-.004.127-.006.093-2.981 31.477c-.495 5.246-.987 10.493-1.532 15.734l-1.595 15.729v.004a1.89 1.89 0 0 1-3.771.071l-.013-.144c-.707-7.934-1.275-15.88-1.926-23.818-.637-7.94-1.208-15.884-1.789-23.826l-3.332-47.654-1.635-23.823-1.562-23.822c-.965-15.885-2.018-31.767-3.462-47.591a381.753 381.753 0 0 0-1.269-11.837c-.481-3.933-1.008-7.86-1.721-11.726-.355-1.93-.745-3.853-1.235-5.702-.246-.919-.521-1.83-.847-2.636-.159-.394-.348-.779-.504-1.007-.068-.107-.156-.18-.068-.113.039.022.16.096.339.116.092.007-.005.014.243.005l-.094.005c-.029.014.207-.028.188-.029.271-.135-.01-.002-.168.294a6.746 6.746 0 0 0-.543 1.065c-.34.809-.625 1.711-.877 2.628-.505 1.841-.896 3.762-1.246 5.69-1.357 7.746-2.154 15.668-2.872 23.574-.655 7.918-1.164 15.857-1.605 23.8-.87 15.888-1.438 31.8-1.899 47.715l-.582 23.876-.527 23.873v.003a1.845 1.845 0 0 1-3.591.797l-.193-.64c-.494-1.631-1.168-3.384-1.934-4.832-.777-1.448-1.804-2.66-2.628-3.014-.405-.186-.7-.219-1.066-.166l-.142.014-.361.015a8.304 8.304 0 0 1-.723.01 16.312 16.312 0 0 1-1.445-.09c-.963-.104-1.926-.18-2.889-.175l-.723-.007-.361-.003c-.1-.008-.345.002-.602-.043-.502-.078-.752-.181-1.01-.285-1.003-.464-1.438-1.005-1.773-1.405a7.089 7.089 0 0 1-.701-1.094c-.646-1.277-.93-2.289-1.232-3.319a53.658 53.658 0 0 1-.731-2.979c-.428-1.95-.787-3.864-1.144-5.767-.706-3.801-1.38-7.559-2.202-11.234-.829-3.646-1.772-7.32-3.215-10.392-.361-.752-.76-1.455-1.178-2.019-.413-.565-.857-.964-1.144-1.108a.96.96 0 0 0-.349-.119c-.013-.004-.027-.002-.042-.003-.176.004.208-.012.089-.005l-.36.021c.014.031.148-.023.061.008-.125.017-.483.262-.859.796-.766 1.064-1.408 2.772-1.928 4.474-.525 1.728-.96 3.557-1.378 5.407-.832 3.709-1.577 7.524-2.566 11.354-1.017 3.82-2.157 7.716-4.392 11.442-1.13 1.836-2.619 3.673-4.725 4.963a10.72 10.72 0 0 1-3.432 1.357c-1.189.264-2.513.241-3.371.237l-23.115-.017-46.232-.034-184.93-.133-369.857-.267v-3.793l369.857-.267 184.93-.133 46.232-.034 23.115-.017c1.066.009 1.686-.008 2.381-.167a5.947 5.947 0 0 0 1.898-.794c1.186-.748 2.217-1.977 3.065-3.427 1.702-2.928 2.754-6.525 3.632-10.148.874-3.649 1.541-7.413 2.326-11.237.398-1.915.816-3.846 1.375-5.816.594-1.971 1.187-3.978 2.601-6.108a8.819 8.819 0 0 1 1.367-1.579 6.499 6.499 0 0 1 2.118-1.289c.359-.15.973-.285 1.459-.339l.36-.027c.001-.005.505-.016.448-.007.107.003.213.005.32.016a6.525 6.525 0 0 1 2.412.668c1.443.728 2.387 1.739 3.139 2.697.747.972 1.308 1.952 1.8 2.924 1.896 3.891 2.894 7.736 3.854 11.569.93 3.829 1.683 7.646 2.453 11.406.385 1.877.771 3.744 1.203 5.55.215.901.442 1.789.692 2.622.241.814.544 1.65.786 2.085.054.098.104.162.078.121-.036-.025-.119-.218-.678-.484-.146-.061-.283-.123-.666-.182-.139-.022-.262-.008-.242-.016l.361-.003.723-.007c.963.005 1.926-.071 2.889-.175.482-.044.964-.088 1.445-.09.24-.007.481-.004.723.01l.361.015.579.052c1.563.144 3.14.816 4.308 1.737 2.342 1.912 3.258 4.236 3.877 6.34.604 2.154.818 4.179.783 6.373l-3.785.156v-.003c.112-7.979.258-15.945.454-23.915l.792-23.901c.596-15.932 1.328-31.861 2.305-47.784.49-7.961 1.049-15.921 1.755-23.877.687-7.96 1.428-15.914 2.776-23.874.351-1.991.74-3.981 1.276-5.986.272-1.003.575-2.008 1-3.04.218-.517.458-1.04.812-1.593.181-.276.388-.562.681-.858.302-.289.689-.622 1.32-.814.098-.042.459-.1.551-.102l.094-.006c.311-.003.275.009.429.021.423.061.78.23 1.024.394.505.342.738.664.961.958.416.589.655 1.111.885 1.631.439 1.033.753 2.03 1.043 3.028.567 1.991 1.006 3.968 1.408 5.948 1.57 7.912 2.684 15.822 3.782 23.742 2.173 15.835 3.892 31.703 5.496 47.578.75 7.941 1.468 15.885 2.06 23.837.635 7.949 1.148 15.905 1.666 23.86.531 7.954.98 15.913 1.406 23.873.451 7.958.805 15.922 1.164 23.884.338 7.964.656 15.929.881 23.897.209 7.971.477 15.934.555 23.914l-3.784-.072.001-.003 1.137-15.77c.366-5.257.784-10.51 1.201-15.764l2.482-31.52-.01.22c.021-1.565.171-2.872.397-4.292a28.073 28.073 0 0 1 1.017-4.149c.913-2.724 2.358-5.491 4.746-7.655a13.21 13.21 0 0 1 4.104-2.529 14.587 14.587 0 0 1 2.301-.664c.372-.097.818-.134 1.23-.192.202-.024.438-.056.613-.069l.483-.022.483-.02.355-.009h.245l.978.003 1.942.013 3.831.008c2.525-.013 4.986-.08 7.36-.408 2.374-.318 4.665-.882 6.858-1.772 4.402-1.742 8.396-4.711 12.058-8.092l-.179.189c.841-.94 1.602-1.658 2.453-2.417a34.75 34.75 0 0 1 2.612-2.099c1.81-1.314 3.763-2.47 5.871-3.366a23.27 23.27 0 0 1 3.272-1.119 20.391 20.391 0 0 1 3.49-.584c.308-.022.645-.05.883-.048l.391-.007.196-.004h.169l.12.006.968.058.955.149c1.264.251 2.455.713 3.532 1.293 2.167 1.167 3.856 2.763 5.369 4.382 1.497 1.638 2.804 3.351 4.059 5.047 1.253 1.694 2.452 3.385 3.706 4.938 1.24 1.54 2.597 2.996 3.967 3.741h.001l-.868-.21h39.344v3.795z"/></g></svg>