<?xml version="1.0" encoding="utf-8"?>
<!-- Generator: Adobe Illustrator 16.0.0, SVG Export Plug-In . SVG Version: 6.00 Build 0)  -->
<!DOCTYPE svg PUBLIC "-//W3C//DTD SVG 1.1//EN" "http://www.w3.org/Graphics/SVG/1.1/DTD/svg11.dtd">
<svg version="1.1" id="Layer_1" xmlns="http://www.w3.org/2000/svg" xmlns:xlink="http://www.w3.org/1999/xlink" x="0px" y="0px"
	 width="370.673px" height="183.939px" viewBox="0 0 370.673 183.939" enable-background="new 0 0 370.673 183.939"
	 xml:space="preserve">
<text transform="matrix(1 0 0 1 358.3647 170.29)" fill="#939598" font-family="'Futura-Medium'" font-size="14.3548">®</text>
<g>
	<polygon fill="#939598" points="173.539,49.75 182.789,49.75 190.539,23.625 200.289,57.75 239.039,57.75 205.789,84.625 
		220.436,117.938 189.834,97.25 189.834,108.75 239.936,141.75 215.112,88.25 261.789,49.75 207.289,49.75 190.539,0 	"/>
	<polygon fill="#939598" points="215.539,49.75 224.789,49.75 232.539,23.625 242.289,57.75 281.039,57.75 247.789,84.625 
		262.436,117.938 231.834,97.25 231.834,108.75 281.936,141.75 257.112,88.25 303.789,49.75 249.289,49.75 232.539,0 	"/>
	<polygon fill="#939598" points="257.539,49.75 266.789,49.75 274.539,23.625 284.289,57.75 323.039,57.75 289.789,84.625 
		304.436,117.938 273.834,97.25 273.834,108.75 323.936,141.75 299.112,88.25 345.789,49.75 291.289,49.75 274.539,0 	"/>
	<path fill="#939598" d="M181.576,52.696l1.213-4.446c0,0-17.749-11.833-46-11.833c-36.812,0-44.249,24-82.166,25
		c-23.576,0.622-37.789-19.388-37.789-19.388v1l-2.834,10c0,0,14.129,20.01,37.706,19.388c37.917-1,52.292-25,84.042-25
		c25.791,0,41.175,9.857,43.658,11.575L181.576,52.696z"/>
	<path fill="#939598" d="M174.576,82.696l1.213-4.446c0,0-17.749-11.833-46-11.833c-36.812,0-44.249,24-82.166,25
		C24.047,92.039,9.834,72.029,9.834,72.029v1L7,83.029c0,0,14.129,20.01,37.706,19.388c37.917-1,52.292-25,84.042-25
		c25.791,0,41.175,9.857,43.658,11.575L174.576,82.696z"/>
	<path fill="#939598" d="M167.576,112.695l1.213-4.445c0,0-17.749-11.833-46-11.833c-36.812,0-44.249,24-82.166,25
		c-23.576,0.622-37.789-19.388-37.789-19.388v1l-2.834,10c0,0,14.129,20.01,37.706,19.388c37.917-1,52.292-25,84.042-25
		c25.791,0,41.175,9.856,43.658,11.575L167.576,112.695z"/>
</g>
<polygon fill="#939598" points="18.834,159.75 0.834,159.75 0.834,165.75 6.834,165.75 6.834,183.75 12.834,183.75 12.834,165.75 
	18.834,165.75 "/>
<line fill="none" stroke="#939598" stroke-width="6" stroke-miterlimit="10" x1="117.834" y1="183.75" x2="117.834" y2="159.75"/>
<path fill="#939598" d="M65.834,175.578l6.884,8.172h9.413l-7.658-9.001c0.802-0.467,1.575-1.031,2.23-1.799
	c1.146-1.341,2.315-3.667,1.371-7.208c-0.618-2.316-2.294-4.133-4.534-5.269c-4.786-2.428-14.707-0.876-14.707-0.876v24.152h7
	V175.578z M65.834,165.288c2-0.104,3.18-0.044,4.187,0.466c0.4,0.205,0.922,0.527,1.152,1.386c0.269,1.006,0.257,1.742-0.115,2.187
	c-0.577,0.689-2.203,1.008-2.795,1.051l-2.429,0.123V165.288z"/>
<path fill="#939598" d="M284.834,175.578l6.884,8.172h9.413l-7.658-9.001c0.802-0.467,1.575-1.031,2.23-1.799
	c1.146-1.341,2.315-3.667,1.371-7.208c-0.618-2.316-2.295-4.133-4.533-5.269c-4.787-2.428-14.707-0.876-14.707-0.876v24.152h7
	V175.578z M284.834,165.288c2-0.104,3.18-0.044,4.188,0.466c0.4,0.205,0.922,0.527,1.151,1.386c0.269,1.006,0.258,1.742-0.114,2.187
	c-0.577,0.689-2.204,1.008-2.796,1.051l-2.429,0.123V165.288z"/>
<g>
	<path fill="#939598" d="M172.659,183.939c-2.571,0-5.304-0.486-7.624-1.999c-2.218-1.447-4.855-4.42-4.855-10.359
		c0-5.946,2.625-8.97,4.846-10.457c6.087-4.083,12.808-1.19,13.808-0.846v5.941c-2-0.579-7.207-1.813-9.995,0.064
		c-0.506,0.342-2.036,1.38-2.036,5.297c0,2.565,0.648,4.3,1.964,5.159c2.578,1.684,8.066,0.578,10.066-0.221v5.885
		C177.834,182.635,176.87,183.939,172.659,183.939z"/>
</g>
<path fill="#939598" d="M234.704,183.75h7.387l-8.336-25h-8.713l-9.599,25h7.509l1.648-4h8.673L234.704,183.75z M226.539,174.75
	l2.703-6.97l2.348,6.97H226.539z"/>
<polygon fill="#939598" points="350.834,163.75 350.834,158.75 343.666,158.75 340.166,158.75 335.834,158.75 335.834,183.75 
	343.166,183.75 343.166,183.75 350.834,183.75 350.834,178.75 342.834,178.75 342.834,173.75 350.834,173.75 350.834,168.75 
	342.834,168.75 342.834,163.75 "/>
</svg>
