<?xml version="1.0" encoding="utf-8"?>
<!-- Generator: Adobe Illustrator 16.0.0, SVG Export Plug-In . SVG Version: 6.00 Build 0)  -->
<!DOCTYPE svg PUBLIC "-//W3C//DTD SVG 1.1//EN" "http://www.w3.org/Graphics/SVG/1.1/DTD/svg11.dtd">
<svg version="1.1" id="M_Copy" xmlns="http://www.w3.org/2000/svg" xmlns:xlink="http://www.w3.org/1999/xlink" x="0px" y="0px"
	 width="436px" height="273.346px" viewBox="0 0 436 273.346" enable-background="new 0 0 436 273.346" xml:space="preserve">
<polygon fill="none" points="177.976,52 166.659,52 166.659,63.2 182.149,63.2 "/>
<polygon fill="none" points="268.586,21.631 268.449,22 268.586,22 "/>
<polygon fill="none" points="188.41,80 166.659,80 166.659,92 192.881,92 "/>
<polygon fill="none" points="172.759,38 166.659,38 166.659,50 177.23,50 "/>
<polygon fill="none" points="182.895,65.2 166.659,65.2 166.659,78 187.665,78 "/>
<polygon fill="none" points="237.592,50 250.431,50 255.012,38 233.054,38 "/>
<polygon fill="none" points="242.584,63.2 245.392,63.2 249.668,52 238.349,52 "/>
<polygon fill="none" points="166.659,21.631 166.659,22 166.796,22 "/>
<polygon fill="none" points="227.003,22 261.12,22 265.701,10 222.465,10 "/>
<polygon fill="none" points="167.542,24 166.659,24 166.659,36 172.014,36 "/>
<polygon fill="none" points="243.981,66.895 244.629,65.2 243.341,65.2 "/>
<polygon fill="none" points="242.562,92 268.586,92 268.586,80 246.999,80 "/>
<polygon fill="none" points="237.384,106 268.586,106 268.586,94 241.821,94 "/>
<polygon fill="none" points="255.775,36 260.356,24 227.759,24 232.297,36 "/>
<polygon fill="none" points="247.739,78 268.586,78 268.586,65.2 252.473,65.2 "/>
<polygon fill="none" points="198.844,108 166.659,108 166.659,121 203.688,121 "/>
<polygon fill="none" points="193.627,94 166.659,94 166.659,106 198.099,106 "/>
<polygon fill="none" points="231.836,121 268.586,121 268.586,108 236.645,108 "/>
<polygon fill="none" points="227.028,134 268.586,134 268.586,123 231.097,123 "/>
<path fill="none" d="M166.675,123c0.087,4.049,1.769,8.088,4.478,11h37.379l-4.099-11H166.675z"/>
<polygon fill="none" points="263.271,36 268.586,36 268.586,24 267.71,24 "/>
<polygon fill="none" points="258.095,50 268.586,50 268.586,38 262.532,38 "/>
<polygon fill="none" points="253.213,63.2 268.586,63.2 268.586,52 257.354,52 "/>
<g>
	<g>
		<g>
			<path fill="#939598" d="M59,212v-2h-1.438c-2.506,0-4.42-2.15-4.42-4.912l0.021-35.879L67.803,212h3.875L86,169.402V210h-5v2h30
				v-2h-5.679l0.013-46H111v-3H86.468l-8.159,23.595L70.227,161H45v2h7v42.247c0,2.763-3.088,4.753-5.595,4.753H45v2H59z"/>
		</g>
		<path fill="#939598" d="M148.479,203.912c0,0-4.051,9.527-16.862,9.527c-14.521,0-20.392-6.29-20.392-18.785
			c0-10.244,6.023-18.656,19.074-18.656c10.098,0,19.044,5.002,19.044,21.002H128v6.225c0,0,0.053,7.312,6.778,7.312
			c6.584,0,12.281-7.856,12.281-7.856L148.479,203.912z M133,195v-11.629c0,0,0.262-4.838-2.592-4.838
			c-2.723,0-2.408,4.838-2.408,4.838V195H133z"/>
		<path fill="#939598" d="M169.505,183.781"/>
		<path fill="#939598" d="M169.753,184.29c2.725-4.646,7.269-7.762,11.427-7.762c7.859,0,9.188,7.212,9.188,7.212
			c2.738-4.545,7.083-7.401,11.194-7.401c9.935,0,9.438,10.277,9.438,10.277V211h5v1h-22v-1h2v-25.135c0,0,0.322-3.805-1.729-3.805
			c-1.608,0-3.271,3.675-3.271,7.305c0,1.541,0,21.635,0,21.635h2v1h-19v-1h1.737l-0.155-24.924c0,0,0.031-3.908-2.021-3.908
			c-1.606,0-3.561,3.567-3.561,7.197c0,1.541,0,21.227,0,21.227l3-0.015V212h-22v-1h3.781l0.005-32H151v-1.775
			c1,0.016,1.663,0.031,2.373,0.031c6.562,0,10.627-0.366,16.627-0.941V185"/>
		<path fill="#939598" d="M319,210.45l3-0.015V212h-23v-2h4v-31h-4v-1.731c1,0.018,1.272,0.032,2.027,0.032
			c6.988,0,13.973-0.366,17.973-0.941V210.45z"/>
		<path fill="#939598" d="M388,173.199c0,1.538,0,37.251,0,37.251l4-0.015V212h-22v-2h2.37l0.009-47H368v-1.789
			c2,0.018,1.118,0.031,1.872,0.031c6.989,0,14.128-0.365,18.128-0.941V173.199z"/>
		<path fill="#939598" d="M236.271,213.313c-13.676,0-20.49-8.297-20.49-18.485c0-10.187,6.914-18.406,20.492-18.406
			c13.575,0,20.489,8.242,20.489,18.406C256.762,204.993,249.852,213.313,236.271,213.313z M233,208.556
			c0,1.594,0.812,2.735,2.426,2.735c1.609,0,2.574-1.291,2.574-2.886v-27.129c0-1.593-0.965-2.885-2.574-2.885
			c-1.613,0-2.426,1.442-2.426,3.034V208.556z"/>
		<path fill="#939598" d="M319.596,166.812c0,3.849-4.673,6.969-8.521,6.969c-3.847,0-8.521-3.12-8.521-6.969
			c0-3.849,4.674-6.969,8.521-6.969C314.923,159.843,319.596,162.964,319.596,166.812z"/>
		<path fill="#939598" d="M278.719,184.718c0-3.772,5.722-8.531,11.298-8.052c4.226,0,7.583,3.933,7.583,8.563
			c0,4.633-3.469,8.371-7.706,8.371c-4.24,0-7.688-3.738-7.688-8.371c0-1.364,0.785-3.604,0.785-3.604
			c-1.525-1.03-3.991,3.954-3.991,7.711v21.114l5-0.015V212h-26v-2h4.764l0.006-31H258v-1.731c3,0.018,2.154,0.032,2.909,0.032
			c6.988,0,12.091-0.366,18.091-0.941v7.512L278.719,184.718z"/>
		<path fill="#939598" d="M347,192.743c0,0,0-9.109,0-9.967c0-2.336-0.297-4.31-3.358-4.31c-3.378,0-3.023,0.757-3.023,0.757
			c1.572,1.151,2.677,2.805,2.677,4.642c0,5.113-3.556,6.307-7.815,6.307c-4.255,0-7.837-0.673-7.837-6.307
			c0-2.777,0.899-7.506,16.475-7.506c15.573,0,17.883,4.555,17.883,8.021v20.707c0,3.39,4.863,0.013,4.863,1.365
			c0,1.354-1.029,6.884-9.967,6.884c-3.908,0-8.703-1.748-8.703-5.179c0-1.396-0.829,5.135-13.257,5.135
			c-7.3,0-10.187-4.237-10.187-9.657C324.75,189.628,347,192.743,347,192.743z M342,204.526c0,6.518,5,5.452,5-1.559v-8.521
			c-2-1.029-5,0.789-5,4.188V204.526z"/>
	</g>
	<g>
		<path fill="#939598" d="M103,229.268c0,1.235,0,28.732,0,28.732h3v2H93v-2h3.108l0.002-36H91v-2.343
			c0,0.012,0.877,0.026,1.358,0.026c4.477,0,8.642-0.295,10.642-0.756V229.268z"/>
		<path fill="#939598" d="M217,258h4v2h-15v-2h2v-20h-2v-1.666c0,0.009,0.75,0.016,1.164,0.016c3.8,0,5.836-0.166,9.836-0.429v5.493
			c0,0,1.307-5.375,7.616-5.375c2.646,0,4.298,2.421,4.298,4.907c0,2.326-1.852,3.973-3.959,3.973c-2.109,0-4.119-1.709-4.119-3.818
			c0-1.396,1.118-2.54,1.118-2.54c-1.198-0.413-4.914,3.688-4.914,7.265"/>
		<path fill="#939598" d="M274.377,231.534c0-9.042,7.047-12.78,11.512-12.78c1.661,0,4.861,0.479,7.492,2.453L295.28,219H296v11
			h-0.874c0-3-4.127-9.247-9.662-9.247c-2.642,0-6.871,2.197-6.843,5.777c0.079,9.691,21.273,1.562,21.273,19.071
			c0,12.007-7.741,15.432-12.447,15.432c-6.334,0-8.705-2.99-8.705-2.99L276.485,260H273v-11h3.362c0,0,2.259,10.107,10.559,10.107
			c5.323,0,8.551-3.667,8.551-8.297C295.472,240.955,274.377,249.36,274.377,231.534z"/>
		<path fill="#939598" d="M328.452,243.251c0-5.298,4.84-7.492,7.909-7.492c1.142,0,3.338,0.826,5.145,1.989l1.307-0.748H343v5
			h-0.298c0-1-2.829-5.244-6.633-5.244c-1.816,0-4.718,1.375-4.701,3.475c0.054,5.682,14.611,0.96,14.611,11.222
			c0,7.043-5.313,9.073-8.551,9.073c-4.351,0-5.976-1.714-5.976-1.714L329.899,260H327v-7h2.817c0,0,1.551,6.171,7.252,6.171
			c3.655,0,5.876-2.024,5.876-4.741C342.945,248.654,328.452,253.704,328.452,243.251z"/>
		<path fill="#939598" d="M320.623,240.004c0-1.698-0.623-1.698-3.623-1.698V237h9v1h-2.095l-12.933,32.465
			c0,0-1.28,2.881-4.397,2.881c-2.149,0-4.05-1.705-4.05-3.855c0-2.151,0.859-3.875,3.584-3.875c3.663,0,3.194,3.276,3.991,1.891
			l3.029-7.367L302.904,238H300v-1h13v1h-1.908l5.735,12.318l4.013-10.547"/>
		<path fill="#939598" d="M169.516,242.816c0,2.103,1.708,3.814,3.817,3.814c2.107,0,3.815-1.706,3.815-3.814
			c0-5.375-4.67-6.774-9.653-6.774c-6.595,0-11.943,5.632-11.943,12.576c0,6.948,5.348,12.575,11.943,12.575
			c4.961,0,8.976-3.052,10.61-7.955l-1.652-0.551c-1.804,4.536-5.054,6.644-8.712,6.644c-1.416,0-4.741-0.63-4.741-4.939
			c0,0,0-9.552,0-12.43c0-3.896,3.338-4.362,4.741-4.362c2.101,0,3.262,0.935,3.262,1.713
			C171.003,240.092,169.516,241.101,169.516,242.816z"/>
		<path fill="#939598" d="M81,254.656c0,1.506-1.328,2.722-3.004,2.722c-1.675,0-3.746-1.07-3.746-4.895
			c0-4.602,6.75-4.052,6.75-4.052V254.656z M81,246.631c0,0-13.93-0.648-13.93,8.463c0,3.319,3.331,6.012,7.307,6.012
			c4.674,0,7.483-3.839,7.483-3.839s1.626,3.839,5.05,3.839c5.453,0,4.718-3.554,4.718-4.5c0-0.942-4.628,2.339-4.628-2.025v-14.645
			c0-2.021-2.032-4.177-7.649-4.177c-9.821,0-10.925,4.643-10.925,6.434c0,1.796,1.888,3.79,3.982,3.79
			c2.093,0,3.885-2.104,3.885-3.79c0-1.728-1.845-2.277-1.845-3.498c0-1.091,6.552-2.305,6.552,1.845
			C81,244.6,81,246.631,81,246.631z"/>
		<path fill="#939598" d="M193,254.656c0,1.506-0.907,2.722-2.585,2.722c-1.675,0-3.956-1.07-3.956-4.895
			c0-4.602,6.541-4.052,6.541-4.052V254.656z M193,246.631c0,0-13.511-0.648-13.511,8.463c0,3.319,3.54,6.012,7.517,6.012
			c4.672,0,7.585-3.839,7.585-3.839s1.681,3.839,5.104,3.839c5.451,0,5.324-3.554,5.324-4.5c0-0.942-4.019,2.339-4.019-2.025
			v-14.645c0-2.021-2.614-4.177-8.229-4.177c-9.821,0-11.218,4.643-11.218,6.434c0,1.796,1.745,3.79,3.835,3.79
			c2.094,0,3.815-2.104,3.815-3.79c0-1.728-2.3-2.277-2.3-3.498c0-1.091,6.097-2.305,6.097,1.845C193,244.6,193,246.631,193,246.631
			z"/>
		<polygon fill="#939598" points="0,221 0,222 5,222 5,258 0,258 0,260 19,260 19,258 13,258 13,241 25,241 25,258 21,258 21,260 
			40,260 40,258 35,258 35,222 40,222 40,221 21,221 21,222 25,222 25,238 13,238 13,222 19,222 19,221 		"/>
		<path fill="#939598" d="M65.161,252.709c-1.694,4.824-5.042,8.396-11.516,8.404c-7.14,0.013-12.929-5.165-12.929-12.304
			c0-7.127,5.789-12.63,12.929-12.63c6.514,0,11.115,2.82,11.115,11.82H50v7.054c0,1.816,0.738,4.001,5.094,4.108
			c3.665,0.088,7.068-2.717,8.389-7.073L65.161,252.709z M53.077,237.447c-3.351,0-3.077,2.225-3.077,2.225V247h6v-7.328
			C56,239.672,56.429,237.447,53.077,237.447z"/>
		<path fill="#939598" d="M254.776,252.709c-1.693,4.824-5.044,8.396-11.518,8.404c-7.138,0.013-12.927-5.165-12.927-12.304
			c0-7.127,5.789-12.63,12.927-12.63c6.515,0,11.116,2.82,11.116,11.82H238v7.054c0,1.816,1.545,4.001,5.9,4.108
			c3.664,0.088,7.472-2.717,8.793-7.073L254.776,252.709z M242.578,237.447c-3.352,0-4.578,2.225-4.578,2.225V247h9v-7.328
			C247,239.672,245.93,237.447,242.578,237.447z"/>
		<path fill="#939598" d="M390.743,252.709c-1.696,4.824-5.045,8.396-11.518,8.404c-7.141,0.013-12.929-5.165-12.929-12.304
			c0-7.127,5.788-12.63,12.929-12.63c6.514,0,11.114,2.82,11.114,11.82H374v7.054c0,1.816,1.527,4.001,5.883,4.108
			c3.666,0.088,7.466-2.717,8.783-7.073L390.743,252.709z M378.076,237.447c-3.352,0-4.076,2.225-4.076,2.225V247h8v-7.328
			C382,239.672,381.428,237.447,378.076,237.447z"/>
		<path fill="#939598" d="M125.17,254.343l-1.75-0.313c0,0-0.842,3.663-3.489,3.663c-1.246,0-1.931-2.024-1.931-2.024V238h4v-1h-4
			v-9h0.916c-1.773,0-4.648,1.101-6.931,1.101c-0.418,0,0.015,0.47-1.985,0.452V237h-2v1h2v19.376c0,0,0.752,3.729,6.047,3.729
			C124.418,261.105,125.17,254.343,125.17,254.343z"/>
		<path fill="#939598" d="M365.046,254.343l-1.75-0.313c0,0-0.779,3.663-3.426,3.663c-1.246,0-1.87-2.024-1.87-2.024V238h4v-1h-4v-9
			h0.793c-1.771,0-5.085,1.101-7.37,1.101c-0.416,0-0.423,0.47-2.423,0.452V237h-2v1h2v19.376c0,0,1.191,3.729,6.483,3.729
			C363.855,261.105,365.046,254.343,365.046,254.343z"/>
		<path fill="#939598" d="M150,241.576c0,0,0.203-5.691-6.026-5.691c-6.854,0-8.974,5.766-8.974,5.766c0-6.174,0-11.838,0-12.383
			v-10.34c-2,0.461-5.542,0.756-10.016,0.756c-0.484,0,0.016-0.015-0.984-0.026V222h4.342l-0.002,36H124v2h15v-2h-4
			c0,0,0-5.814,0-12.377c0,0,2.164-7.01,5.746-7.01c2.259,0,2.254,2.259,2.254,2.259V258h-3v2h15v-2h-5V241.576z"/>
		<path fill="#939598" d="M403,245v13h2v2h-14v-2h3v-20h-3v-1.666c0,0.009,1.172,0.016,1.584,0.016
			c3.801,0,7.416-0.166,10.416-0.429v5.5c0,0,2.764-5.5,8.291-5.5c6.932,0,6.439,5.5,6.439,5.5s2.227-5.5,8.768-5.5
			c5.92,0,5.502,5.5,5.502,5.5V258h4v2h-15v-2h4v-17.294c0,0-0.533-2.034-2.246-2.034c-4.043,0-5.754,5.629-5.754,5.629V258h3v2h-14
			v-2h3v-17.294c0,0,0.955-2.034-1.225-2.034c-3.332,0-4.874,5.682-4.874,5.682"/>
	</g>
	<g>
		<polygon fill="#939598" points="303,6 320,6 320,0 243.104,0 240.175,8 303,8 		"/>
		<polygon fill="#939598" points="219.103,63 226.924,63 231.065,52 223.379,52 		"/>
		<polygon fill="#939598" points="224.142,50 231.806,50 236.243,38 228.723,38 		"/>
		<polygon fill="#939598" points="236.982,36 241.421,24 234.067,24 229.486,36 		"/>
		<g>
			<g>
				<rect x="303" y="8" fill="#939598" width="38" height="2"/>
				<polygon fill="#939598" points="239.412,10 240.175,8 195.419,8 196.176,10 				"/>
				<rect x="95" y="8" fill="#939598" width="37" height="2"/>
				<polygon fill="#939598" points="242.297,24 242.297,22 242.16,22 241.421,24 				"/>
				<polygon fill="#939598" points="140.507,22 140.37,22 140.37,24 141.253,24 				"/>
				<polygon fill="#939598" points="201.47,24 234.067,24 234.831,22 200.714,22 				"/>
				<rect x="303" y="22" fill="#939598" width="38" height="2"/>
				<rect x="95" y="22" fill="#939598" width="37" height="2"/>
				<rect x="303" y="36" fill="#939598" width="38" height="2"/>
				<polygon fill="#939598" points="236.243,38 242,38 242,36 236.982,36 				"/>
				<rect x="95" y="36" fill="#939598" width="37" height="2"/>
				<polygon fill="#939598" points="228.723,38 229.486,36 206.008,36 206.765,38 				"/>
				<polygon fill="#939598" points="145.725,36 140,36 140,38 146.47,38 				"/>
				<polygon fill="#939598" points="231.065,52 242,52 242,50 231.806,50 				"/>
				<polygon fill="#939598" points="212.06,52 223.379,52 224.142,50 211.303,50 				"/>
				<rect x="95" y="50" fill="#939598" width="37" height="2"/>
				<polygon fill="#939598" points="150.941,50 140,50 140,52 151.687,52 				"/>
				<rect x="303" y="50" fill="#939598" width="38" height="2"/>
				<rect x="95" y="78" fill="#939598" width="37" height="2"/>
				<polygon fill="#939598" points="220.71,80 242,80 242,78 221.45,78 				"/>
				<rect x="303" y="78" fill="#939598" width="38" height="2"/>
				<polygon fill="#939598" points="161.375,78 140,78 140,80 162.121,80 				"/>
				<rect x="303" y="92" fill="#939598" width="38" height="2"/>
				<polygon fill="#939598" points="166.592,92 140,92 140,94 167.338,94 				"/>
				<rect x="95" y="92" fill="#939598" width="37" height="2"/>
				<polygon fill="#939598" points="215.532,94 242,94 242,92 216.272,92 				"/>
				<polygon fill="#939598" points="204.808,123 242,123 242,121 205.547,121 				"/>
				<rect x="303" y="121" fill="#939598" width="38" height="2"/>
				<path fill="#939598" d="M177.399,121H140v1.668c0,0.111,0.383,0.221,0.386,0.332h37.759L177.399,121z"/>
				<rect x="95" y="121" fill="#939598" width="37" height="2"/>
				<rect x="303" y="106" fill="#939598" width="38" height="2"/>
				<polygon fill="#939598" points="171.81,106 140,106 140,108 172.555,108 				"/>
				<polygon fill="#939598" points="210.355,108 242,108 242,106 211.095,106 				"/>
				<rect x="95" y="106" fill="#939598" width="37" height="2"/>
				<rect x="303" y="134" fill="#939598" width="38" height="2"/>
				<path fill="#939598" d="M144.864,134c0.696,0.748,1.457,1.421,2.279,2h35.846l-0.746-2H144.864z"/>
				<path fill="#939598" d="M127.882,134H95v2h30.527C126.378,135.422,127.167,134.751,127.882,134z"/>
				<polygon fill="#939598" points="200.739,134 200,136 242,136 242,134 				"/>
				<polygon fill="#939598" points="217.052,65 218.34,65 219.103,63 216.295,63 				"/>
				<rect x="95" y="63" fill="#939598" width="37" height="2"/>
				<rect x="303" y="63" fill="#939598" width="38" height="2"/>
				<polygon fill="#939598" points="155.86,63 140,63 140,65 156.605,65 				"/>
				<polygon fill="#939598" points="226.184,65 242,65 242,63 226.924,63 				"/>
			</g>
			<g>
				<polygon fill="#939598" points="217.692,66.695 217.052,65 156.605,65 161.375,78 221.45,78 226.184,65 218.34,65 				"/>
				<rect x="242.001" y="24" fill="#939598" width="60.853" height="12"/>
				<polygon fill="#939598" points="206.765,38 146.47,38 150.941,50 211.303,50 				"/>
				<polygon fill="#939598" points="242,138 226,138 226,144 320,144 320,138 303,138 303,136 242,136 				"/>
				<polygon fill="#939598" points="212.06,52 151.687,52 155.86,63 216.295,63 				"/>
				<polygon fill="#939598" points="192.518,0 115,0 115,6 132,6 132,8 195.419,8 				"/>
				<rect x="132" y="80" fill="#939598" width="8" height="12"/>
				<rect x="132" y="108" fill="#939598" width="8" height="13"/>
				<polygon fill="#939598" points="177.399,121 205.547,121 210.355,108 172.555,108 				"/>
				<polygon fill="#939598" points="178.145,123 182.243,134 200.739,134 204.808,123 				"/>
				<polygon fill="#939598" points="171.81,106 211.095,106 215.532,94 167.338,94 				"/>
				<rect x="132" y="94" fill="#939598" width="8" height="12"/>
				<path fill="#939598" d="M140.386,123H132v0.285c0,4.026-1.447,7.907-4.118,10.715h16.982
					C142.155,131.088,140.473,127.049,140.386,123z"/>
				<rect x="242.002" y="38" fill="#939598" width="60.848" height="12"/>
				<rect x="132" y="65" fill="#939598" width="8" height="13"/>
				<rect x="242.002" y="80" fill="#939598" width="60.835" height="12"/>
				<rect x="132" y="24" fill="#939598" width="8" height="12"/>
				<rect x="242.002" y="65" fill="#939598" width="60.84" height="13"/>
				<rect x="132" y="38" fill="#939598" width="8" height="12"/>
				<rect x="242.002" y="94" fill="#939598" width="60.831" height="12"/>
				<polygon fill="#939598" points="140,21.631 140.507,22 200.714,22 196.176,10 132,10 132,22 140,22 				"/>
				<polygon fill="#939598" points="185.97,144 197.041,144 200,136 182.989,136 				"/>
				<path fill="#939598" d="M118.326,138H115v6h42v-6h-2.929c-2.565,0-4.917-0.585-6.929-2h-21.615
					C123.44,137.418,120.989,138,118.326,138z"/>
				<polygon fill="#939598" points="145.725,36 206.008,36 201.47,24 141.253,24 				"/>
				<rect x="242.002" y="123" fill="#939598" width="60.822" height="11"/>
				<rect x="242.002" y="52" fill="#939598" width="60.844" height="11"/>
				<polygon fill="#939598" points="239.412,10 234.831,22 242.16,22 242,21.631 242,22 302.856,22 302.86,10 				"/>
				<rect x="132" y="52" fill="#939598" width="8" height="11"/>
				<rect x="242.002" y="108" fill="#939598" width="60.826" height="13"/>
				<polygon fill="#939598" points="166.592,92 216.272,92 220.71,80 162.121,80 				"/>
			</g>
		</g>
	</g>
</g>
</svg>
