<svg width="63" height="73" xmlns="http://www.w3.org/2000/svg"><g fill="none" fill-rule="evenodd"><g stroke="#FFF" stroke-width="2"><path d="M37.472 9.78S10.982 17.374 7.54 21.599C4.1 25.824 1.047 39.72 1.04 50.737l-.02.083c.774 7.254 3.067 16.188 6.652 18.401C11.26 71.436 42.421 72 42.421 72"/><path d="M44.52 71.752c8.22-1.148 11.743-6.148 11.743-6.148 2.725-5.19 4.795-11.62 5.385-18.429l-.015-.077c-.004-10.25-2.095-20.744-5.256-28.981 0 0-3.794-6.863-12.03-8.52l.158.033c-9.038-1.818-13.834 4.237-13.834 4.237-4.36 8.527-7.449 20.784-7.455 33.418l-.023.096c.888 8.32 3.902 15.716 7.63 21.103 0 0 4.455 4.559 13.51 3.295l.186-.027z"/><path d="M37.32 9.8C38.252.36 33.582-.745 27.015 3.004c-5.08 2.9-8.363 7.525-8.423 13.055"/><path d="M21.617 14.966c-.328-5.112 1.38-6.313 2.963-7.156.072-.039.65.583 2.436-.35 1.776-.928 2.245-2.144 2.317-2.182 2.415-1.286 4.719-1.771 3.657 5.989"/></g><path d="M37.18 10.014c-1.266.283-2.526.607-3.783.933-1.259.322-2.513.662-3.761 1.021a166.751 166.751 0 0 0-7.448 2.301 120.714 120.714 0 0 0-7.318 2.69 64.46 64.46 0 0 0-3.565 1.578c-1.166.572-2.326 1.173-3.372 1.949-.26.196-.507.408-.73.645a6.81 6.81 0 0 0-.59.776 13.663 13.663 0 0 0-.965 1.695c-.576 1.168-1.041 2.388-1.46 3.62-.83 2.469-1.46 5.002-1.979 7.554a84.848 84.848 0 0 0-.684 3.847 68.487 68.487 0 0 0-.5 3.875 38.009 38.009 0 0 0-.2 3.9c.002 1.303.063 2.606.256 3.898l-.014.12-.008.087.012-.18a27.366 27.366 0 0 0 .126 3.433c.111 1.14.278 2.275.5 3.399.455 2.245 1.1 4.456 1.983 6.572.446 1.055.96 2.085 1.609 3.03.327.47.689.918 1.105 1.311.417.387.884.745 1.436.913 1.087.358 2.223.533 3.352.706 1.131.163 2.268.291 3.405.404 2.277.217 4.56.363 6.843.492 2.283.119 4.569.192 6.854.26 2.286.06 4.571.126 6.859.127 2.286.01 4.573.023 6.857-.025L41.982 72l-13.715-.788a478.562 478.562 0 0 1-6.847-.476 197.501 197.501 0 0 1-6.837-.603 77.668 77.668 0 0 1-3.404-.424c-1.129-.18-2.265-.36-3.35-.725-.55-.173-1.017-.53-1.434-.916a8.395 8.395 0 0 1-1.106-1.31c-.648-.946-1.162-1.976-1.609-3.03a32.138 32.138 0 0 1-1.15-3.24 69.185 69.185 0 0 1-.9-3.318 203.295 203.295 0 0 1-.806-3.353c-.261-1.123-.516-2.25-.8-3.381L0 50.343l.035-.087.032-.08-.014.12c.197-1.313.344-2.614.5-3.913l.455-3.886c.156-1.293.312-2.586.516-3.873a85.11 85.11 0 0 1 .684-3.847c.519-2.552 1.148-5.085 1.98-7.554.418-1.232.883-2.452 1.459-3.62a13.73 13.73 0 0 1 .965-1.695 6.75 6.75 0 0 1 .59-.776c.223-.237.47-.45.73-.645 1.045-.776 2.206-1.377 3.372-1.949a64.24 64.24 0 0 1 3.565-1.579c2.4-1 4.843-1.89 7.283-2.788 2.445-.882 4.899-1.746 7.357-2.602L36.889 9l.29 1.014z" fill="#FFF" fill-rule="nonzero"/><path d="M44.044 70.7a23.886 23.886 0 0 0 1.656-.294 20.414 20.414 0 0 0 1.618-.416 19.357 19.357 0 0 0 3.097-1.22 17.717 17.717 0 0 0 2.82-1.75 15.36 15.36 0 0 0 1.257-1.072c.199-.189.391-.384.577-.585a7.78 7.78 0 0 0 .508-.602l-.036.059c.371-.706.726-1.42 1.064-2.143a48.652 48.652 0 0 0 2.53-6.716 48.961 48.961 0 0 0 1.525-7.011c.11-.79.197-1.582.272-2.377l.008.147-.017-.078-.007-.033-.003-.068c-.021-.613-.048-1.226-.056-1.839l-.083-1.838c-.079-1.225-.155-2.448-.269-3.67-.051-.611-.127-1.22-.189-1.831-.062-.61-.154-1.217-.23-1.826-.073-.61-.18-1.214-.268-1.821-.086-.608-.206-1.21-.307-1.816-.1-.605-.23-1.205-.346-1.808-.114-.603-.256-1.2-.386-1.8-.126-.6-.281-1.194-.424-1.791-.14-.598-.309-1.188-.464-1.782-.153-.594-.338-1.18-.506-1.77-.167-.59-.366-1.17-.547-1.756a76.322 76.322 0 0 0-1.227-3.467l.033.07a11.332 11.332 0 0 0-.487-.755 18.986 18.986 0 0 0-1.76-2.147 19.363 19.363 0 0 0-2.799-2.435 18.088 18.088 0 0 0-3.22-1.829 17.264 17.264 0 0 0-1.735-.647 18.14 18.14 0 0 0-1.795-.464l.208-1.04.159.03-.208 1.041c-.309-.033-.616-.077-.923-.104-.31-.015-.615-.057-.923-.062a17.806 17.806 0 0 0-1.836.015 14.766 14.766 0 0 0-5.248 1.31c-.545.253-1.074.54-1.581.861-.51.316-.997.665-1.46 1.044-.23.19-.452.388-.666.592a7.98 7.98 0 0 0-.577.608l.093-.144c-.307.639-.646 1.262-.943 1.907-.292.647-.609 1.283-.875 1.943-.271.658-.57 1.304-.826 1.968-.27.66-.531 1.324-.785 1.99l-.39.998c-.121.335-.235.674-.365 1.008a46.67 46.67 0 0 0-.727 2.023 47.14 47.14 0 0 0-.67 2.047 48.03 48.03 0 0 0-.616 2.067c-.198.692-.378 1.39-.54 2.091a34.514 34.514 0 0 0-.454 2.112 29.193 29.193 0 0 0-.363 2.131c-.097.714-.224 1.424-.277 2.144-.056.718-.16 1.432-.173 2.154-.026.72-.077 1.44-.062 2.16.001.72.02 1.441.055 2.16.057.72.111 1.439.209 2.155l-.015.122-.01.099.012-.182.174 1.393.215 1.387c.071.463.172.92.256 1.38.08.462.198.915.296 1.373.097.458.222.91.337 1.363.112.454.246.903.378 1.352.125.451.27.896.417 1.34.14.447.296.889.457 1.328.154.442.322.879.497 1.313.167.437.349.87.537 1.297.368.86.766 1.708 1.194 2.54.205.421.433.83.656 1.24.218.414.464.813.698 1.218.48.801.986 1.587 1.518 2.356l-.057-.069c.176.169.416.365.643.535.233.173.474.339.722.494.498.314 1.017.594 1.552.838 1.072.496 2.208.858 3.369 1.103 1.162.245 2.351.368 3.544.386a22.66 22.66 0 0 0 1.79-.046c.598-.045 1.194-.109 1.788-.191l-.008.002zm.156 1.049c-.619.086-1.24.152-1.863.2-.626.036-1.253.06-1.88.047a19.515 19.515 0 0 1-3.747-.409 16.87 16.87 0 0 1-3.596-1.177 14.16 14.16 0 0 1-1.675-.905c-.27-.17-.535-.35-.79-.542a7.823 7.823 0 0 1-.764-.638l-.03-.03-.028-.04a43.391 43.391 0 0 1-1.56-2.42c-.24-.415-.492-.824-.715-1.248-.23-.422-.463-.84-.673-1.271a41.312 41.312 0 0 1-1.223-2.601 29.15 29.15 0 0 1-.549-1.328 29.83 29.83 0 0 1-.509-1.342 29.835 29.835 0 0 1-.467-1.358c-.153-.454-.296-.911-.427-1.371-.135-.46-.272-.918-.386-1.383-.118-.463-.246-.925-.345-1.393-.1-.468-.22-.932-.302-1.404-.087-.47-.19-.939-.262-1.411l-.22-1.419-.178-1.424-.011-.088.023-.095.037-.093-.015.122c.12-.725.197-1.448.277-2.17.078-.72.177-1.44.241-2.158l.48-4.301c.154-1.434.34-2.863.529-4.293.08-.718.2-1.43.299-2.145l.149-1.075.176-1.07c.106-.718.225-1.433.364-2.145a47.96 47.96 0 0 1 .426-2.136c.147-.713.31-1.422.488-2.127.17-.709.374-1.408.585-2.105.194-.704.437-1.392.682-2.08a34.23 34.23 0 0 1 .774-2.05c.263-.681.579-1.343.87-2.014.299-.668.629-1.324.95-1.983l.04-.078.055-.066c.23-.272.477-.531.738-.776a14.334 14.334 0 0 1 2.425-1.843c.58-.347 1.183-.654 1.802-.922.62-.268 1.257-.497 1.908-.669.65-.178 1.31-.31 1.978-.397A14.092 14.092 0 0 1 40.285 8c.665 0 1.33.046 1.989.136.657.08 1.303.223 1.942.375l-.208 1.041-.16-.031.209-1.04c.64.136 1.281.285 1.906.487.63.188 1.242.428 1.846.682a19.21 19.21 0 0 1 3.42 1.929 20.459 20.459 0 0 1 4.837 4.834c.19.273.366.535.547.847l.018.03.015.04a76.25 76.25 0 0 1 1.257 3.519c.186.594.39 1.183.56 1.781.173.598.363 1.191.52 1.793.158.602.332 1.2.476 1.805.146.605.305 1.206.435 1.815.133.607.279 1.212.395 1.823.12.61.254 1.218.356 1.831.106.613.228 1.224.318 1.839.091.615.2 1.227.277 1.845.078.617.172 1.231.238 1.85.065.618.144 1.236.197 1.855.116 1.239.211 2.48.26 3.724l.055 1.866c.008.622-.002 1.245-.008 1.867l-.01-.101.013.077.015.089-.007.059v.001a56.387 56.387 0 0 1-.279 2.43 50.255 50.255 0 0 1-4.143 14.025c-.346.741-.709 1.473-1.089 2.195l-.017.034-.019.025c-.201.27-.388.482-.592.705-.202.22-.411.43-.626.633a16.31 16.31 0 0 1-1.345 1.147 18.73 18.73 0 0 1-2.99 1.856c-1.05.522-2.143.954-3.268 1.289-.56.17-1.128.312-1.7.436-.569.121-1.141.223-1.717.305H44.2z" fill="#FFF" fill-rule="nonzero"/><path d="M34.993 9.731s.075-.126.175-.365c.141-.335.247-.685.317-1.043a6.581 6.581 0 0 0 .102-1.66c-.042-.64-.114-1.365-.305-2.131-.192-.76-.504-1.58-1.087-2.256a3.502 3.502 0 0 0-2.396-1.19c-.944-.081-1.92.118-2.861.431-.951.336-1.87.761-2.746 1.272a20.314 20.314 0 0 0-2.514 1.71c-.796.614-1.501 1.317-2.138 2.033-.645.711-1.17 1.483-1.636 2.229a13.962 13.962 0 0 0-1.642 4.247c-.112.612-.196 1.147-.215 1.594-.046.443-.03.795-.035 1.033L18.01 16 17 15.989l.032-.393c.026-.255.04-.632.125-1.102.063-.473.182-1.04.34-1.682.179-.636.406-1.346.736-2.082.317-.741.746-1.5 1.245-2.261.516-.75 1.09-1.519 1.78-2.216a18.2 18.2 0 0 1 2.255-1.985 20.514 20.514 0 0 1 2.593-1.644c.906-.48 1.84-.91 2.797-1.218.956-.298 1.947-.479 2.9-.378.953.09 1.836.541 2.414 1.228.583.685.89 1.51 1.078 2.273.187.768.255 1.494.293 2.135.018.643.058 1.201.111 1.669.054.47.131.844.185 1.095a3.1 3.1 0 0 0 .116.39l-1.007-.087z" fill="#FFF" fill-rule="nonzero"/><path d="M22.049 15c-.35-5.081 1.24-5.85 2.925-6.69.077-.038.693.58 2.593-.347 1.89-.922 2.39-2.13 2.466-2.169 2.57-1.278 4.796-1.973 3.665 5.74" stroke="#FFF" stroke-width="2"/><g stroke="#FFF" stroke-width="2"><path d="M41.1 55.8c-.048.004-.086-.05-.086-.119v-6.508l-4.574.25c-.05.003-.091-.054-.091-.125V37.836c0-.071.041-.129.091-.13l4.574-.036v-6.51c0-.07.038-.125.087-.125l7.59.144c.046 0 .082.056.082.124v6.304l4.139-.033c.043 0 .077.053.077.12v10.702c0 .066-.034.121-.077.125l-4.14.226v6.305c0 .067-.035.124-.082.128l-7.59.62z"/><path d="M36.44 37.836l4.66-.04v-6.634l7.59.14v6.429l4.222-.036V48.4l-4.222.23v6.428l-7.59.615v-6.632l-4.66.252z"/></g></g></svg>