<svg id="Layer_1" xmlns="http://www.w3.org/2000/svg" width="222.252" height="222.252" viewBox="-280 -193 222.252 222.252"><g id="clock" fill="none" stroke="#8BC53F" stroke-miterlimit="10"><circle id="face" stroke-width="3" cx="-128.54" cy="-145.643" r="30.375"/><path id="dial" stroke-width="2" d="M-128.375-173.374v4m-14.086-.383l1.896 3.289m-12.089 6.904l3.288 1.898m-7.009 12.292h4m-.279 13.653l3.286-1.898m6.905 12.091l1.898-3.288m12.19 7.442v-4m13.755-.154l-1.897-3.288m12.091-6.904l-3.289-1.897m7.34-11.757h-4m-.051-14.189l-3.287 1.898m-6.905-12.092l-1.897 3.288"/><path id="min_1_" stroke-width="3" d="M-128.875-143.374v-21"/><path id="hr" stroke-width="3" d="M-128.875-143.374v-16"/></g><g id="doctor" stroke="#8BC53F" stroke-miterlimit="10"><path fill="#8BC53F" d="M-125.259-31.435s16.147-113.272-45.727-113.272c-33.467 0-39.375 25.875-39.375 39.375s12.216 73.897 85.102 73.897z"/><path fill="#FFF" d="M-128.875 18.626v-64.374c0-4.364-4.694-6.262-4.694-6.262-16.645-6.959-55.618-6.775-72.932 0 0 0-4.374 1.551-4.374 6.262v64.374"/><g fill="#FFF" stroke-width=".5"><path d="M-192.413-46.174s4.068-14.146 23.414-14.146c37.125 0 24.11 65.461 24.11 65.461l-1.334-.397s12.855-63.938-22.776-63.938c-17.655 0-21.397 12.994-21.397 12.994"/><path d="M-191.284-45.37c9.483 17.488 2.644 32.684-3.701 41.398.202.408.404.806.606 1.19 6.946-9.45 14.398-25.622 4.002-43.538m-5.408 43.419c-3.289 4.289-6.184 6.741-6.184 6.741.859-1.034-1.443-2.475-1.443-2.475-1.834-1.529-3.432-.472-4.136.377-.704.846-1.659 1.801.879 3.916 2.537 2.112 4.292.39 4.292.39s3.417-2.855 7.2-7.767c-.207-.391-.41-.786-.608-1.182z"/><path d="M-191.63-45.371c-19.273 24.529 2.246 50.343 2.246 50.343-.674-1.166 1.839-2.197 1.839-2.197 2.066-1.197 3.463.113 4.014 1.065.554.955 1.332 2.058-1.525 3.716-2.857 1.653-4.297-.34-4.297-.34s-24.097-28.271-3.029-53.542"/><circle cx="-145.479" cy="4.745" r="6.852"/><circle cx="-145.48" cy="4.745" r="3.134"/></g><path fill="#FFF" d="M-161.844-74.874l-15.031-.225v34.994s1.154 3.582 7.266 3.582c6.113 0 7.734-3.582 7.734-3.582v-34.77h.031z"/><path fill="#FFF" d="M-169.864-127.542s-2.231 13.944-24.914 13.944c0 0-7.623-5.392-7.623 4.276 0 7.065 5.949 4.091 5.949 4.091s7.308 42.561 26.96 42.561c19.151 0 26.959-42.561 26.959-42.561s5.393 1.674 5.393-4.091c0-9.292-7.993-4.276-7.993-4.276s-24.731 0-24.731-13.944zm-7.011 67.859v78s-9.74-23.465-9.74-32.59 7.207-15.102 7.207-15.102-4.278-2.5-4.278-14.014c-.002-14.01 6.811-16.294 6.811-16.294zm15 0v78s9.88-23.465 9.88-32.59-7.134-15.102-7.134-15.102 4.17-2.5 4.17-14.014c0-16.26-6.916-16.294-6.916-16.294z"/><circle fill="none" stroke-width="3" cx="-168.874" cy="-81.874" r="109.626"/></g></svg>