<svg xmlns="http://www.w3.org/2000/svg" width="222.252" height="222.252" viewBox="0 0 222.252 222.252"><g id="Original" fill="none" stroke="#33DABA" stroke-width="3" stroke-miterlimit="10"><path d="M189.534 116.428c11.459 2.43 19.973 5.473 19.973 5.473s-8.836 35.111-30.025 49.387c-21.188 14.276-56.054 10.354-56.054 10.354M33.956 116.462c-11.378 2.424-19.813 5.438-19.813 5.438s8.836 35.111 30.024 49.387c21.188 14.276 56.054 10.354 56.054 10.354M89.626 75.859c10.011-14.64 22.488-26.089 22.488-26.089s12.755 11.454 21.606 26.875"/><path d="M164.2 98.104c14.365-1.589 26.53-.853 26.53-.853s1.31 36.184-15.054 55.804-52.439 28.581-52.439 28.581M60.219 98.21c-14.768-1.728-27.463-.959-27.463-.959s-1.31 36.184 15.054 55.804 52.439 28.581 52.439 28.581"/><path d="M112.052 95.894c14.259-16.742 37.593-29.43 37.593-29.43s20.285 29.991 16.805 55.302c-3.48 25.311-43.143 59.688-43.143 59.688"/><path d="M112.956 181.574s15.621-43.26 9.477-67.906c-6.145-24.647-47.627-47.204-47.627-47.204S65.036 80.909 60.22 98.21c-2.123 7.628-3.283 15.811-2.219 23.556 3.48 25.311 42.143 59.688 42.143 59.688"/><circle cx="111.126" cy="111.126" r="109.626"/></g></svg>
