<?xml version="1.0" encoding="utf-8"?>
<!-- Generator: Adobe Illustrator 16.0.0, SVG Export Plug-In . SVG Version: 6.00 Build 0)  -->
<!DOCTYPE svg PUBLIC "-//W3C//DTD SVG 1.1//EN" "http://www.w3.org/Graphics/SVG/1.1/DTD/svg11.dtd">
<svg version="1.1" xmlns="http://www.w3.org/2000/svg" xmlns:xlink="http://www.w3.org/1999/xlink" x="0px" y="0px"
	 width="29.643px" height="38.613px" viewBox="0 0 29.643 38.613" enable-background="new 0 0 29.643 38.613" xml:space="preserve">
<g id="Trace">
</g>
<g id="Trace_2" display="none">
</g>
<g id="Original">
	<g>
		<path fill="none" stroke="#58595B" stroke-width="0.75" stroke-miterlimit="10" d="M0.375,38.238c0-4.09,3.314-7.403,7.403-7.403
			c4.091,0,7.404,3.313,7.404,7.403H0.375z"/>
		<path fill="none" stroke="#58595B" stroke-width="0.75" stroke-miterlimit="10" d="M9.188,21.112
			c-0.44-0.161-0.913-0.254-1.411-0.254c-2.267,0-4.105,1.837-4.105,4.104s1.838,4.105,4.105,4.105c2.24,0,4.057-1.793,4.102-4.021
			C10.963,23.523,10.034,22.289,9.188,21.112z"/>
		<path fill="none" stroke="#58595B" stroke-width="0.75" stroke-miterlimit="10" d="M18.535,14.779
			c-1.764,0-3.193-1.431-3.193-3.193c0-1.764,1.429-3.193,3.193-3.193s3.194,1.43,3.194,3.193
			C21.729,13.349,20.298,14.779,18.535,14.779z M29.268,11.586c0-6.125-4.542-11.211-10.733-11.211S7.778,5.395,7.778,11.586
			c0,10.4,7.519,9.203,10.311,25.968c0,0,0.435,1.54,0.937,0C21.739,20.789,29.268,21.986,29.268,11.586z"/>
	</g>
</g>
</svg>
