<svg width="18" height="25" xmlns="http://www.w3.org/2000/svg"><g stroke="#FFF" fill="none" fill-rule="evenodd"><path d="M1 24c0-2.658 1.724-4.472 3.852-4.472S8.704 21.342 8.704 24H1zM5.565 13.277a1.928 1.928 0 0 0-.712-.138c-1.146 0-2.075 1.001-2.075 2.236 0 1.234.93 2.236 2.075 2.236 1.132 0 2.05-.977 2.073-2.19-.464-.83-.933-1.503-1.36-2.144zM11.074 9.306c-.982 0-1.778-.859-1.778-1.917 0-1.059.796-1.917 1.778-1.917s1.778.859 1.778 1.917-.797 1.917-1.778 1.917zM17 7.432C17 3.918 14.495 1 11.08 1 7.667 1 5.149 3.88 5.149 7.432c0 5.967 4.147 5.28 5.686 14.898 0 0 .24.883.517 0C12.848 12.71 17 13.399 17 7.432z"/></g></svg>