<svg width="41" height="47" xmlns="http://www.w3.org/2000/svg"><g fill="none" fill-rule="evenodd"><g stroke="#FFF" stroke-width="2"><path d="M24.318 6.565s-16.936 4.812-19.136 7.49c-2.2 2.678-4.152 11.486-4.156 18.468l-.013.053c.495 4.598 1.961 10.26 4.253 11.663C7.56 45.643 27.482 46 27.482 46"/><path d="M28.824 45.843c5.256-.728 7.508-3.897 7.508-3.897a31.158 31.158 0 0 0 3.443-11.68l-.01-.049c-.002-6.497-1.339-13.147-3.36-18.368 0 0-2.425-4.35-7.691-5.4l.1.02c-5.778-1.151-8.844 2.686-8.844 2.686-2.788 5.404-4.762 13.173-4.766 21.18l-.015.061c.568 5.273 2.495 9.962 4.878 13.376 0 0 2.849 2.889 8.637 2.088l.12-.017z"/><path d="M24.22 6.577c.597-5.982-2.389-6.683-6.587-4.307-3.249 1.839-5.347 4.77-5.386 8.275"/><path d="M14.182 9.852c-.21-3.24.882-4.001 1.894-4.536.046-.025.416.37 1.557-.222 1.136-.588 1.435-1.358 1.481-1.383 1.544-.815 3.018-1.122 2.338 3.796"/></g><path d="M23.016 6.644c-.784.18-1.563.385-2.342.592-.779.204-1.555.42-2.328.649a101.33 101.33 0 0 0-4.61 1.46 73.537 73.537 0 0 0-4.531 1.708c-.744.314-1.483.642-2.207 1.002-.721.363-1.44.745-2.087 1.238-.16.124-.314.259-.452.41-.133.154-.255.319-.366.492a8.736 8.736 0 0 0-.597 1.076 19.265 19.265 0 0 0-.903 2.299c-.515 1.567-.904 3.176-1.225 4.796-.16.81-.301 1.625-.424 2.442a44.544 44.544 0 0 0-.309 2.46c-.08.823-.127 1.65-.124 2.477.001.827.038 1.654.158 2.475l-.008.076-.005.055.007-.114c-.023.728.012 1.456.078 2.18a22.813 22.813 0 0 0 1.537 6.33c.276.67.594 1.324.996 1.925.203.298.427.582.684.832.258.245.547.472.889.579.673.228 1.376.339 2.075.448.7.104 1.404.185 2.108.257 1.41.138 2.823.23 4.236.312 1.414.076 2.828.122 4.243.165 1.415.038 2.83.08 4.246.081 1.415.006 2.831.014 4.245-.016l-.011.67-8.49-.5c-1.414-.09-2.827-.192-4.24-.303a119.278 119.278 0 0 1-4.231-.382 46.934 46.934 0 0 1-2.108-.27c-.698-.113-1.402-.228-2.074-.46-.34-.11-.629-.336-.887-.581a5.3 5.3 0 0 1-.685-.832c-.401-.6-.72-1.255-.996-1.924a20.755 20.755 0 0 1-.712-2.057c-.203-.697-.389-1.4-.557-2.107-.173-.708-.339-1.418-.499-2.129-.162-.713-.319-1.428-.495-2.147L0 32.25l.022-.055.02-.05-.01.076c.122-.834.214-1.66.31-2.485l.282-2.467c.097-.82.193-1.642.32-2.46.123-.816.263-1.63.423-2.442.321-1.62.71-3.228 1.225-4.796.26-.782.547-1.557.904-2.298a8.78 8.78 0 0 1 .597-1.076c.11-.173.232-.339.365-.493.138-.15.292-.285.452-.41.647-.492 1.366-.874 2.088-1.237a39.27 39.27 0 0 1 2.206-1.003c1.486-.635 2.999-1.2 4.509-1.77 1.514-.56 3.033-1.109 4.554-1.652L22.837 6l.179.644z" fill="#FFF" fill-rule="nonzero"/><path d="M28.329 45.167c.36-.05.72-.113 1.076-.188.354-.075.705-.164 1.051-.267a12.692 12.692 0 0 0 2.014-.782 11.545 11.545 0 0 0 1.832-1.12c.285-.215.558-.444.818-.687.13-.121.254-.246.375-.375.118-.125.24-.265.33-.385l-.023.037a30.888 30.888 0 0 0 2.336-5.676 30.99 30.99 0 0 0 .99-4.49c.072-.506.129-1.014.178-1.523l.005.094-.01-.05-.006-.021-.001-.044c-.014-.392-.032-.785-.037-1.178l-.054-1.178c-.05-.784-.1-1.568-.174-2.35-.034-.392-.083-.782-.124-1.173-.04-.391-.1-.78-.149-1.17-.048-.39-.117-.778-.174-1.167-.056-.39-.134-.775-.2-1.163-.065-.388-.15-.772-.225-1.158-.074-.387-.166-.77-.25-1.153-.082-.385-.183-.765-.276-1.148-.091-.383-.201-.76-.302-1.141-.1-.381-.22-.756-.328-1.134-.11-.378-.238-.75-.356-1.125a48.426 48.426 0 0 0-.798-2.221l.022.044a7.248 7.248 0 0 0-.317-.483 12.215 12.215 0 0 0-1.144-1.376 12.534 12.534 0 0 0-1.82-1.56 11.326 11.326 0 0 0-3.221-1.586 11.931 11.931 0 0 0-1.166-.297l.135-.666.104.02-.135.666c-.201-.021-.4-.05-.6-.067-.202-.01-.4-.036-.6-.04a11.743 11.743 0 0 0-1.194.01 9.723 9.723 0 0 0-3.411.84 9.06 9.06 0 0 0-1.028.551 8.834 8.834 0 0 0-.949.669c-.15.122-.294.248-.432.379-.135.126-.28.276-.376.39l.061-.092c-.2.409-.42.808-.613 1.22-.19.416-.396.823-.569 1.246-.176.421-.37.835-.537 1.26-.175.424-.345.848-.51 1.275l-.253.64c-.08.215-.153.431-.237.645-.168.429-.326.86-.473 1.296-.155.434-.3.871-.435 1.311-.144.439-.277.88-.4 1.325-.13.444-.247.89-.352 1.34-.117.447-.208.9-.295 1.353-.096.452-.175.907-.236 1.365-.063.457-.146.912-.18 1.373-.037.46-.104.918-.113 1.38-.017.462-.05.922-.04 1.384 0 .462.013.923.036 1.384.037.461.072.921.135 1.38l-.009.078-.007.064.008-.117.113.893.14.888c.046.296.112.59.166.885.053.295.13.585.193.879.063.293.144.582.22.873.071.291.159.578.244.866.082.29.176.574.272.859.09.286.192.569.297.85.1.284.209.563.323.842.108.28.226.556.349.83.239.552.498 1.094.776 1.628.133.27.281.53.426.794.142.265.302.52.454.78.312.513.64 1.017.987 1.51l-.038-.045c.115.108.271.234.419.343.15.111.308.217.47.317.323.2.66.38 1.008.537.697.317 1.435.549 2.19.706.755.157 1.528.236 2.303.247.388.006.776-.004 1.164-.03.388-.028.776-.07 1.162-.122l-.005.002zm.1.672c-.401.055-.805.098-1.21.128-.407.024-.814.04-1.222.03a12.863 12.863 0 0 1-2.436-.261 11.079 11.079 0 0 1-2.337-.755 9.248 9.248 0 0 1-1.603-.926 5.068 5.068 0 0 1-.496-.41l-.02-.018-.017-.026a27.753 27.753 0 0 1-1.014-1.55c-.156-.266-.32-.528-.465-.8-.15-.27-.301-.538-.438-.814a26.292 26.292 0 0 1-.794-1.666c-.126-.281-.245-.565-.357-.851-.117-.284-.229-.57-.331-.86-.108-.288-.21-.578-.304-.87-.1-.29-.192-.584-.278-.878-.087-.294-.176-.588-.25-.886-.077-.297-.16-.593-.224-.893-.066-.3-.143-.597-.197-.899-.056-.301-.123-.601-.17-.904l-.143-.909-.116-.912-.007-.057.015-.06.024-.06-.01.078c.079-.464.128-.927.18-1.39.05-.461.116-.922.157-1.383l.312-2.755c.1-.918.221-1.834.344-2.75.052-.46.13-.916.194-1.374l.097-.689.114-.686c.07-.459.146-.917.237-1.373.083-.458.173-.915.277-1.369.095-.456.201-.91.317-1.362.11-.454.243-.902.38-1.35.126-.45.285-.89.443-1.331.152-.443.323-.88.504-1.313.17-.437.376-.861.565-1.291.195-.428.409-.848.618-1.27l.025-.05.036-.043c.15-.174.31-.34.48-.497a9.277 9.277 0 0 1 2.748-1.771 9.55 9.55 0 0 1 2.526-.683c.432-.062.868-.079 1.302-.08.432 0 .864.03 1.293.087.427.051.847.143 1.262.24l-.135.667-.103-.02.135-.666c.417.087.833.183 1.239.312a12.082 12.082 0 0 1 3.423 1.673 13.245 13.245 0 0 1 3.144 3.096c.123.176.238.344.356.543l.011.02.01.025c.29.745.563 1.496.817 2.254.12.38.253.758.364 1.141.113.383.236.764.337 1.15.104.385.217.768.31 1.155.095.388.199.773.283 1.163.087.389.181.777.257 1.168.078.39.165.78.232 1.173.068.393.148.784.206 1.178.06.394.13.786.18 1.182.05.395.112.789.155 1.185.042.396.093.792.128 1.189.075.793.137 1.588.17 2.385l.035 1.196c.005.398-.002.797-.005 1.195l-.007-.064.008.05.01.056-.005.038v.001c-.049.52-.109 1.04-.18 1.557a31.845 31.845 0 0 1-2.693 8.985c-.226.474-.461.942-.709 1.405l-.01.022-.013.016c-.13.173-.252.309-.385.452a10.563 10.563 0 0 1-1.281 1.14c-.609.455-1.26.854-1.944 1.19a14.08 14.08 0 0 1-3.229 1.105c-.37.077-.742.142-1.116.195h-.005z" fill="#FFF" fill-rule="nonzero"/><path d="M22.364 6.82s.047-.083.11-.243a3.69 3.69 0 0 0 .2-.695c.06-.303.087-.678.065-1.107a8.35 8.35 0 0 0-.193-1.42c-.121-.507-.318-1.054-.686-1.504a2.172 2.172 0 0 0-1.513-.794c-.596-.054-1.212.079-1.808.288-.6.223-1.18.507-1.734.848a12.82 12.82 0 0 0-1.588 1.14c-.502.409-.948.878-1.35 1.355-.407.474-.739.989-1.033 1.486a9.776 9.776 0 0 0-1.037 2.831 8.542 8.542 0 0 0-.136 1.063c-.029.296-.018.53-.022.689V11L11 10.993l.02-.262c.016-.17.025-.421.08-.735.04-.315.114-.693.214-1.121a10.084 10.084 0 0 1 1.25-2.896c.327-.5.69-1.012 1.126-1.477.433-.467.904-.923 1.423-1.324.521-.409 1.069-.775 1.638-1.095.572-.32 1.162-.607 1.766-.812.605-.199 1.23-.32 1.833-.252.601.06 1.159.36 1.524.818.368.457.563 1.007.68 1.516a8.3 8.3 0 0 1 .186 1.423c.011.428.036.8.07 1.112.034.314.083.563.117.73.039.17.073.261.073.261l-.636-.058z" fill="#FFF" fill-rule="nonzero"/><path d="M14.028 8c-.204-3.049.724-3.51 1.707-4.014.045-.023.404.348 1.513-.208 1.102-.553 1.393-1.279 1.438-1.301 1.5-.768 2.797-1.184 2.138 3.444" stroke="#FFF" stroke-width="2"/><g stroke="#FFF" stroke-width="2"><path d="M25.3 35.872c-.03.003-.055-.032-.055-.076v-4.165l-2.96.16c-.032.001-.06-.035-.06-.08v-7.336c0-.046.028-.082.06-.083l2.96-.023v-4.166c0-.045.024-.08.055-.08l4.911.092c.03 0 .054.036.054.079v4.035l2.678-.022c.028 0 .05.034.05.077v6.85c0 .042-.022.077-.05.08l-2.678.144v4.035c0 .043-.024.08-.054.082l-4.91.397z"/><path d="M22.285 24.375l3.015-.025v-4.246l4.911.089v4.115l2.732-.023v6.851l-2.731.147v4.114l-4.912.394v-4.245l-3.015.162z"/></g></g></svg>