<svg width="166" height="32" xmlns="http://www.w3.org/2000/svg"><g fill="#D8D8D8" stroke="#979797" fill-rule="evenodd"><path d="M16 25.705L6.111 31 8 19.784l-8-7.943 11.056-1.636L16 0l4.944 10.205L32 11.84l-8 7.943L25.889 31zM60 25.705L50.111 31 52 19.784l-8-7.943 11.056-1.636L60 0l4.944 10.205L76 11.84l-8 7.943L69.889 31zM105 25.705L95.111 31 97 19.784l-8-7.943 11.056-1.636L105 0l4.944 10.205L121 11.84l-8 7.943L114.889 31zM150 25.705L140.111 31 142 19.784l-8-7.943 11.056-1.636L150 0l4.944 10.205L166 11.84l-8 7.943L159.889 31z"/></g></svg>